<svg id="Layer_1" data-name="Layer 1" xmlns="http://www.w3.org/2000/svg" viewBox="0 0 764 782.1"><defs><style>.cls-1{fill:#fff;}.cls-2{fill:none;stroke:#000;stroke-miterlimit:10;}</style></defs><g id="illustration"><path d="M574.85,921.2c-1.4-2.7-2.8-5.5-4.3-8.2,3.5-1.5,6.9-4.1,10.4-4.2,2.3-.1,4.8,3.3,7.2,5.2-2.3,2.4-4.6,4.9-6.9,7.3C579.15,921.2,577,921.2,574.85,921.2Z" transform="translate(-243.8 -159.3)"/><path d="M677.55,921.2c-2.3-2.2-5.1-4.2-6.6-6.8-.4-.7,3-5,4.9-5.2,3.7-.3,8.4.1,11,2.2,5.2,4.2,0,7-2.9,9.8Z" transform="translate(-243.8 -159.3)"/><path d="M558.75,921.2c-.5-3.2-.9-6.4-1.4-9.6,2.1.1,4.7-.6,6.2.4,4.1,2.7,2.8,6.1-.1,9.2Z" transform="translate(-243.8 -159.3)"/><path d="M695.25,921.2c-.9-1.6-2.8-3.6-2.4-4.7a15,15,0,0,1,4.8-5.8c.7-.5,4,.9,3.9,1.3a70.76,70.76,0,0,1-1.6,9.2Z" transform="translate(-243.8 -159.3)"/><path d="M626.45,159.3c4.8.4,9.6.4,14.3,1.3,40.8,7.9,58.7,38.7,46,78.9-2.9,9.1-5.3,18.3-8.3,27.4-2.5,7.6-7.7,12-16,12.3-7.5.2-15.8-1.5-19.9,7.8a2.82,2.82,0,0,1-2.1,1c-9.4,0-18.7,0-28.1-.1a3.21,3.21,0,0,1-2.6-1.5c-3.3-7.3-9.7-7.2-16.2-7.1-12.1.1-17.5-4.7-19.4-16.5a53.1,53.1,0,0,0-3.8-12.9c-6.4-14.8-9.3-30.2-6.4-46.2,4.6-25.1,26.5-42.2,55.2-43.8,2.4-.1,4.8,0,7.2,0A1.49,1.49,0,0,0,626.45,159.3Z" transform="translate(-243.8 -159.3)"/><path class="cls-1" d="M610.25,248c.1-8.8-3.1-12.2-11.7-12.3-9.9-.2-16.2,7.4-16.3,19.5-.1,6.4,5,10.3,13.3,10.3C605.45,265.6,610.05,260.1,610.25,248Z" transform="translate(-243.8 -159.3)"/><path class="cls-1" d="M643,248c.1,12,4.7,17.5,14.8,17.5,8.2.1,13.4-3.9,13.5-10.3.1-11.8-6.5-19.7-16.3-19.5C646.25,235.8,642.85,239.3,643,248Z" transform="translate(-243.8 -159.3)"/><path class="cls-1" d="M626.25,280.6c.4.6.8,1.1,1.2,1.7,3.8-2.6,10.7-5.1,10.8-7.9.3-7.1-6.7-6.6-11.9-7-1.6-.1-3.5-.2-4.7.6-2.6,1.8-4.7,4.2-7.1,6.4a74.64,74.64,0,0,0,7,5.6C622.85,280.7,624.75,280.4,626.25,280.6Z" transform="translate(-243.8 -159.3)"/><path d="M592,530.8c6.1.1,12.5,3.8,17.6,10.4,8.3,10.8,29.1,10.7,37.9.1a32.08,32.08,0,0,1,8.3-7.3c9.3-5.5,19.9-3.6,25.1,3.9,5.4,7.7,3.4,20.7-5.3,26.4-7.1,4.7-11.4,9.7-13.2,18.4-2.3,10.9-15.2,14.6-26.2,7.9-6.3-3.8-10.6-4.4-17.2-.2-11.5,7.3-24.7-.2-27.5-13.7-.7-3.4-5-6.9-8.5-8.8-9.7-5.4-13.7-13.3-11-23.9C574.05,535.5,580.45,530.8,592,530.8Z" transform="translate(-243.8 -159.3)"/><path class="cls-1" d="M630.65,569.1a16.18,16.18,0,0,0,1,1.8c2.1-1.7,5.2-3.1,6.1-5.3a11.89,11.89,0,0,0,.1-8.7c-.5-1.2-4.9-.6-7.6-.8-2.1-.2-4.1-.1-6.2-.5-6.3-1.2-8.9,1.7-7.3,7.9C618.75,571.5,624.45,570.8,630.65,569.1Z" transform="translate(-243.8 -159.3)"/><path class="cls-1" d="M639.45,577.8c5.5-.2,6.3,11.3,13.4,4.9,1.8-1.6,2-8.2.4-9.7C648,568.1,643.75,572.9,639.45,577.8Z" transform="translate(-243.8 -159.3)"/><path class="cls-1" d="M617.35,578.1c-5.3-5.2-9.3-9.8-14.7-5.2-1.7,1.4-1.7,7.9,0,9.5C609.25,588.8,610.85,578.5,617.35,578.1Z" transform="translate(-243.8 -159.3)"/><path d="M559.75,665.3c0-12.8-.1-25.6.1-38.5.1-5-.4-9.1-5.4-12.3-2.2-1.4-2.1-6.2-3.1-9.5,2.7-.7,5.4-1.4,8.1-2.2,3.1-.9,6.2-2.2,9.4-2.8,2.8-.5,7.5-1.2,8.3.2,1.4,2.2,1.1,6.1.4,9-1.4,5.2-5.1,10.1-5.2,15.3-.7,27-.8,53.9-.7,80.9,0,3,3.3,5.8,4.7,8.9s3.9,6.9,3,9.2c-.8,2.1-5.6,3.1-8.8,3.6a38.9,38.9,0,0,1-11.8,0c-2.8-.5-5.4-2.4-8.1-3.7,1.2-2.4,2.4-4.9,3.5-7.3,1.2-2.8,3.3-5.6,3.4-8.4.3-14.2.2-28.3.2-42.5A12.12,12.12,0,0,0,559.75,665.3Z" transform="translate(-243.8 -159.3)"/><path d="M699.35,726.8c-3.9.3-7.9,1.1-11.7.6-2.9-.4-6.8-1.8-8.1-3.9-1-1.8.3-7.2,2-8,6.7-3.1,6.4-8.5,6.4-14.1-.3-25.9-.4-51.8-1.2-77.6-.1-4.6-3.5-9.1-4.8-13.8-.8-2.9-.7-6.2-1.1-9.3a82,82,0,0,1,9.9-.1,54,54,0,0,1,9.5,2.1c2.5.7,7,1.7,6.9,2.5-.1,3.3-1.3,6.6-2.6,9.8-1.5,3.6-5.2,7-5.2,10.5.2,27.2,1.1,54.5,2,81.7.1,2.9,1.7,5.9,2.9,8.7s4.4,6.3,3.7,7.6c-1.4,2.4-5.2,3.5-8,5.1A12.51,12.51,0,0,0,699.35,726.8Z" transform="translate(-243.8 -159.3)"/><path d="M638.65,392.2c.7,6.6,2.6,13.3,1.8,19.7-1.1,8.8-.2,18.3-2.2,26.3-2.5,9.9.5,18.6-.2,27.8-.2,2.9-.9,7.2-2.8,8.1a13.35,13.35,0,0,1-10.2.1c-1.9-.9-3.1-5.2-3-8,.3-6,1.7-12,2.3-18,.2-1.7-1-3.5-1.1-5.3-1.1-11.6-2.2-23.2-3.1-34.8-.3-4.3-.7-8.8.1-13,1.2-5.6,1.9-13,5.7-16C632.85,373.5,640.85,381.1,638.65,392.2Z" transform="translate(-243.8 -159.3)"/><path d="M561.45,874.8c-.3-3.4-.9-6.9-1-10.3-.5-33.9-.9-67.9-1.3-101.8-.1-4.7.1-9-6.8-9.4-1.7-.1-5-5.4-4.4-7.5.7-2.9,4.1-5.8,7-7.1a23.92,23.92,0,0,1,11.3-1.5c3.3.2,8.2,1,9.4,3.3,1.4,2.4-.3,6.8-1.3,10.2-1.1,3.8-4.1,7.3-4.2,11-.9,32.9-1.1,65.7-1.9,98.6-.1,5-1.7,9.9-2.6,14.9A19.92,19.92,0,0,0,561.45,874.8Z" transform="translate(-243.8 -159.3)"/><path d="M699.05,754.9c-.4,40.3-.8,80-1.1,119.8-1.3.2-2.5.4-3.8.5-1.1-3.9-2.9-7.8-3.3-11.9-.9-10.9-1.4-21.9-1.5-32.9-.3-22.2-.1-44.4-.2-66.6,0-5.2.5-10.3-4.9-14.2-1.8-1.3-2.2-7-.9-9.3s5.6-3.2,8.7-3.4a28.47,28.47,0,0,1,12,1.7c2.9,1.2,6.5,4.3,6.9,7.1.4,2.4-3,5.6-5.2,8C705,754.6,702.75,754.3,699.05,754.9Z" transform="translate(-243.8 -159.3)"/><path d="M723.55,354.4c.2-2.3.1-4.7.7-6.9.5-1.8,1.5-4.5,2.8-4.9,1.9-.5,5.5,0,6.2,1.3,3.1,5.3,7.8,4.8,12.6,4.7,12.8-.3,25.6-.3,38.5-.9,4.1-.2,8-2.1,12.1-2.7,2.5-.4,5.8-.8,7.4.5s1.5,4.6,1.7,7.1a23.49,23.49,0,0,1-.2,7c-.5,2.3-1.4,5.8-2.9,6.3-2.2.7-6.7-.1-7.4-1.6-2.7-5.5-7-5.7-12-5.6-14.2.4-28.3.4-42.5.9-3.3.1-6.5,1.9-9.8,2.5-2.6.4-6,1.1-7.8-.2-1.5-1-1.2-4.7-1.7-7.2A8.52,8.52,0,0,1,723.55,354.4Z" transform="translate(-243.8 -159.3)"/><path d="M455.55,359.8c0-5.6-.7-10.9.3-15.9.3-1.5,5-3.5,7.5-3.2,7.5.8,14.8,3.2,22.3,4a237.76,237.76,0,0,0,30.4,1.2c3.9-.1,7.8-2.9,11.8-4.3,2.1-.7,4.5-1.8,6.3-1.3,1.4.4,2.4,3,3,4.8a37.62,37.62,0,0,1,1.9,8.2c.2,2.2.3,5.2-1,6.4s-4.4,1.4-6.5,1c-6.4-1.2-12.6-3.5-19.1-4.1-12-1-24-1.5-36-1.4-3.3,0-7.2,2.3-9.8,4.6C462.55,363.5,457.05,363.8,455.55,359.8Z" transform="translate(-243.8 -159.3)"/><path d="M341.75,358.3c-8.9,3.9-18.1.9-21.8-7.2-3.9-8.5-1.2-18.7,5.6-21.7,8-3.5,19.9,1.9,24,10.8C353,347.6,349.85,354.8,341.75,358.3Z" transform="translate(-243.8 -159.3)"/><path d="M444.25,363.3c-2.1-.6-4.5-1.3-6.9-2.1-4-1.4-7.9-3.9-11.9-4-18.4-.2-36.8.2-55.2.4-1.6,0-3.3.4-4.8-.1a52.79,52.79,0,0,1-6.2-3.3c2.1-1.1,4.2-2.9,6.3-3.1,18.1-.9,36.2-1.4,54.3-2.3,6.3-.3,13.5,1.2,17.3-6.9.4-1,8-.1,8.1.5a164.39,164.39,0,0,1,1.2,18.6C446.45,361.6,445.45,362.1,444.25,363.3Z" transform="translate(-243.8 -159.3)"/><path d="M815.65,345.3c2.9.6,8.1.2,9,2,2.6,5.1,6.7,5.7,11.2,6,19.7,1.3,39.4,2.4,59,3.9,2.3.2,4.5,2.4,6.7,3.6-2.2.9-4.4,2.7-6.6,2.7-20.3-.4-40.5-1.4-60.8-1.7-3.5,0-7,2.4-10.5,3.4-2.4.7-5.5,2.1-7.3,1.3s-3-4.2-3-6.5C813.45,356,814.65,351.8,815.65,345.3Z" transform="translate(-243.8 -159.3)"/><path d="M651.85,302.1c.4,10.4-3.7,16-11.5,16.8-9.6.9-19.6,1.2-29.1-.4-8.4-1.4-12.3-10.8-9.8-19,.5-1.7,2.6-2.9,3.9-4.3,1.5,1.5,4.4,3.1,4.3,4.5-.4,6.9,3.7,8.1,9,8.3,4.5.1,9.1.3,13.6,0,5.6-.3,11.9-.1,10.4-9-.2-1.1,2.1-3.6,3.2-3.6A7.08,7.08,0,0,1,651,298,7.37,7.37,0,0,1,651.85,302.1Z" transform="translate(-243.8 -159.3)"/><path d="M920.25,364.5c-7.4-3.2-11-9.9-8.7-15.8,3.2-8,15.2-13.2,22.9-9.9,6.3,2.8,9,11.9,5.7,19.5C937.05,365.4,928.45,368,920.25,364.5Z" transform="translate(-243.8 -159.3)"/><path d="M704.65,879.5V774.3l2.2-.6c.9,1.8,2.6,3.6,2.7,5.5.7,28.8,1.4,57.7,1.7,86.5,0,4.9-2.2,9.8-3.4,14.7C706.75,880.1,705.65,879.8,704.65,879.5Z" transform="translate(-243.8 -159.3)"/><path d="M554.15,774.5V879.6c-.8.2-1.7.3-2.5.5-1.1-3-3-6-3.1-9.1-.5-17.9-.9-35.8-.8-53.6.1-11.8.8-23.5,1.5-35.3.2-2.8,1.3-5.5,1.9-8.3A26.35,26.35,0,0,1,554.15,774.5Z" transform="translate(-243.8 -159.3)"/><path d="M645.75,445.2c22,10,41.8,17.2,60.6-1.8,3.9,6.8-.5,11-3.7,14.5-11,11.8-24.6,9.6-38.1,5.5C656.35,460.8,649.65,456,645.75,445.2Z" transform="translate(-243.8 -159.3)"/><path d="M553,443.1c19.1,19.1,38.8,12.3,59.8,2.4-1.4,9.4-7.2,13.4-13.7,16.1-13.2,5.5-26.7,8.2-39.5-1.1C553.45,456,551.25,450.3,553,443.1Z" transform="translate(-243.8 -159.3)"/><path d="M583.85,442.9c-9.7-2.2-17-3.3-24-5.7-3.2-1.1-5.9-4.3-8.1-7.2-1-1.2-.1-3.9-.1-5.9,1.9.2,4.1-.3,5.6.6,15.7,9.3,31.9,8.3,48.6,3.2,2.1-.6,4.6.2,7,.3-1.3,2.1-2,5.5-3.9,6.2C600.15,437.8,591.15,440.4,583.85,442.9Z" transform="translate(-243.8 -159.3)"/><path d="M674.85,442.6c-6.7-2.3-15.6-5-24.3-8.4-1.7-.7-2.4-4.1-3.6-6.2,2.4,0,4.9-.7,7.1,0,16.6,5.1,32.9,6,48.5-3.3,1.4-.8,3.3-.7,5-.9.2,2,1.4,4.9.5,5.8-3.2,3.3-6.6,7.1-10.8,8.7C691.15,440.4,684.35,440.8,674.85,442.6Z" transform="translate(-243.8 -159.3)"/><path d="M646.75,466.5c16.9,14.2,34.4,20.5,55.2,2.8-.8,5.2-.3,8.5-1.7,10.1-3,3.5-6.6,7.3-10.7,9.1-11.7,5.1-32.3-.6-40.4-10.6-2-2.5-2.9-6-4.2-9.1C645.55,468.1,646.15,467.3,646.75,466.5Z" transform="translate(-243.8 -159.3)"/><path d="M557.75,469.3c20.7,18,38.1,11.2,55.2-2.8.6.9,1.1,1.8,1.7,2.7-1.6,3.3-2.5,7.4-5.1,9.7-10.5,9.4-23.1,14-37,10.3-5.1-1.3-9.6-6.2-13.6-10.2C557.65,477.7,558.25,474.3,557.75,469.3Z" transform="translate(-243.8 -159.3)"/><path d="M700.75,905.2c-2.3.2-6.3,1.1-10.2.8-2.8-.2-6.9-1.5-7.8-3.5s.3-6.4,2-8.4c7-8.2,26-7.2,32.4,1.3,2.9,3.8,1.3,8.8-3.7,9.8C710.05,905.8,706.25,905.2,700.75,905.2Z" transform="translate(-243.8 -159.3)"/><path d="M558.35,905.5c-4,0-8.1.5-12-.1-5.8-.9-7.9-6.6-4.2-10.7,6.1-6.8,22.8-8.7,29.6-2.6,2.6,2.3,3.3,6.6,4.9,10-3.4,1.2-6.8,2.9-10.3,3.6-2.5.5-5.3-.3-8-.5Z" transform="translate(-243.8 -159.3)"/><path d="M645.35,410.7c4.3-.5,7-1.5,9.4-.9,13.8,3.1,27.3,5,39.5-5.2,1.1-.9,4.9-.5,5.5.5.9,1.6.6,4.2.2,6.3-.2,1.1-1.6,2.1-2.6,2.9C685.55,424.7,657.25,423.7,645.35,410.7Z" transform="translate(-243.8 -159.3)"/><path d="M584.85,423.3c-7.4-2.9-15.4-5.6-22.8-9.4-1.9-1-1.9-5.6-2.8-8.6,2.8.2,6.4-.5,8.4.9,10.1,7.4,21,6.9,32.2,4.5,2.4-.5,4.7-1.5,7-1.3,1.8.1,3.4,1.6,5.2,2.5-1,1.4-1.7,3.8-3,4.2C601.55,418.6,593.85,420.7,584.85,423.3Z" transform="translate(-243.8 -159.3)"/><path d="M648.65,525.9c-2,.3-4,.6-6.6,1.1,2,6.7-1.9,9.6-7.4,9.2-6.7-.5-16.8,5.5-18.3-8-.1-1-4-1.5-7.2-4.4,2.2-1.2,4.6-3.6,6.5-3.3,9.4,1.7,18.5,2.4,27.9-.1,1.7-.5,4.1,1.7,6.2,2.6C649.45,524,649.05,524.9,648.65,525.9Z" transform="translate(-243.8 -159.3)"/><path d="M631.75,371.9c-5.5,1.8-12.1,3-14.4-5.6a13.52,13.52,0,0,1,1.1-9.5c.7-1.3,5-.8,7.7-.9a69.42,69.42,0,0,1,7.9.1c2.9.2,7.7,0,8.2,1.2,1.1,3.1,1.2,7.4-.2,10.3-1.1,2.4-5,3.5-7.7,5A8.85,8.85,0,0,1,631.75,371.9Z" transform="translate(-243.8 -159.3)"/><path d="M650.35,504.6c-8.5,6.7-13.8,14.2-23.4,10.9-5.4-1.9-10.4-4.8-15.5-7.2.9-1.7,1.6-4.7,2.6-4.8,8.3-.8,16.6-1.3,24.9-1.3C642.15,502,645.35,503.4,650.35,504.6Z" transform="translate(-243.8 -159.3)"/><path d="M612.25,395.3c-9.5,9.7-32.8,10.4-41.7.8-1.6-1.7-1.6-5-2.4-7.5,2.5.3,5.6-.4,7.3.9,8.3,6.4,17.4,5.7,26.8,3.8,3.2-.7,6.5-.6,9.8-.9A28.25,28.25,0,0,1,612.25,395.3Z" transform="translate(-243.8 -159.3)"/><path d="M645.15,393c5,0,7.9-.5,10.7.1,10.5,2.1,20.6,3.3,29.6-4.8,1.1-1,3.6-.2,5.5-.3a37.45,37.45,0,0,1-.1,5.8c-.1.9-1.1,1.8-1.9,2.5C679.75,405.6,656.65,404.9,645.15,393Z" transform="translate(-243.8 -159.3)"/><path d="M592.35,367.8c-3.4.4-4.7.4-5.8.8a25.21,25.21,0,0,0-4.2,2.4c1.1,1.3,2.2,3.7,3.4,3.8,6,.5,12.1.3,18.1.7,2.9.2,5.6,1.5,8.4,2.3-2.3,1.8-4.4,4.5-6.9,5.1-8.7,2.2-17.7,3.4-24.5-4.3-1.9-2.2-3.2-7.1-2-9.1,1.5-2.6,5.8-3.8,9-5.3C588.45,364.1,589.65,365.7,592.35,367.8Z" transform="translate(-243.8 -159.3)"/><path d="M647.85,375.6h10.4c4,0,8,.7,11.9,0,2.7-.5,5.1-2.8,7.7-4.3-2.3-1.4-4.6-2.8-8.1-4.8,1.5-.7,3.8-2.5,4.5-2.1,3,2.2,6,4.7,7.9,7.7.7,1.2-1,4.6-2.4,6.3C673.05,386.9,655.05,386.6,647.85,375.6Z" transform="translate(-243.8 -159.3)"/><path d="M680.05,349.4a11.43,11.43,0,0,1,3.2,0c2.7.8,5.4,1.9,8.1,2.9-2.5,1.7-4.8,4.5-7.5,5-8.6,1.6-17.3,2.6-26,3.4-2.3.2-4.7-1.4-7-2.1,1.6-1.8,2.9-4.8,4.8-5.3,8-1.9,16.2-3.1,24.3-4.6A1.7,1.7,0,0,0,680.05,349.4Z" transform="translate(-243.8 -159.3)"/><path d="M580.55,348.8c7.6,1.4,15.2,2.4,22.6,4.3,2.1.5,3.5,3.7,5.2,5.7-2.3.7-4.8,2-7,1.8a236.14,236.14,0,0,1-25.1-3.3c-2.9-.5-5.4-2.9-8-4.5,2.8-1.2,5.5-2.5,8.3-3.5,1.2-.4,2.6-.1,4-.1Z" transform="translate(-243.8 -159.3)"/><path d="M646.75,488.8c-10.8,8.1-20.7,8.4-30.9,3.3a20.56,20.56,0,0,1-3.7-2.9,36.85,36.85,0,0,1,3.7-3.2c8.3-5.2,17.3-.9,26-1.4C643.25,484.5,645,487.2,646.75,488.8Z" transform="translate(-243.8 -159.3)"/><path d="M366.85,342.7c8.7-4.9,47-4.8,53,1.9-18.6.2-35.7.5-52.8.7A21.12,21.12,0,0,1,366.85,342.7Z" transform="translate(-243.8 -159.3)"/><path d="M841.85,349.6c5-6.4,42.7-6,52.5.2C877.35,352.2,860.35,349.8,841.85,349.6Z" transform="translate(-243.8 -159.3)"/><path d="M546.45,357.3c2.5-5.8,3.1-10.7,5.8-12.4,5.1-3.3,10.4-.3,11.9,5,.9,3.2-1.1,10-3,10.5C557.45,361.4,553,359,546.45,357.3Z" transform="translate(-243.8 -159.3)"/><path d="M714.45,359c-6.5,1.6-11,3.9-14.8,3.1-1.8-.4-3.8-7.4-2.9-10.5,1.6-5.3,6.8-8.3,11.9-4.9C711.35,348.5,712,353.3,714.45,359Z" transform="translate(-243.8 -159.3)"/><path d="M570.65,593.1c-4-4.9-8.1-7.6-8.3-10.7-.5-6.1,4.8-9.2,10-8.4,3.2.5,8.4,5.6,8,7.4C579.25,585.2,575.15,588,570.65,593.1Z" transform="translate(-243.8 -159.3)"/><path d="M688.25,593.1c-4.4-5-8.4-7.9-9.6-11.6-.5-1.6,4.8-6.7,8-7.3,5.3-.9,10.5,2.2,9.9,8.3C696.15,585.6,692.15,588.3,688.25,593.1Z" transform="translate(-243.8 -159.3)"/><path d="M330,321.7c-2.7-2.3-6.5-4.1-7.8-7-.8-1.9,1.9-5.4,3.1-8.2,2.8,1.7,6.7,2.8,8.2,5.2,1.3,2-.2,5.7-.4,8.7C332.05,320.8,331,321.2,330,321.7Z" transform="translate(-243.8 -159.3)"/><path d="M305.05,336.6c-4.6-1.9-8.5-3.4-12.3-5,1.2-1.8,2.5-5.1,3.4-5,4.4.6,8.7,2.2,13,3.4C308.05,331.8,307,333.6,305.05,336.6Z" transform="translate(-243.8 -159.3)"/><path d="M295.15,337.8c4.4,1.7,7.7,3,11,4.3-1.5,1.9-2.8,5.2-4.4,5.3-3.4.1-6.9-1.4-10.4-2.2C292.45,343.2,293.45,341.2,295.15,337.8Z" transform="translate(-243.8 -159.3)"/><path d="M927.35,317.5c4.1-1.2,6.8-1.9,9.4-2.7.6,2.4,2.6,5.9,1.7,7-1.8,2.2-5.2,3.1-8,4.5C929.55,323.9,928.75,321.5,927.35,317.5Z" transform="translate(-243.8 -159.3)"/><path d="M312.85,375c-3.5-1.5-5.6-2.4-7.7-3.4,1.4-2.4,2.3-5.8,4.4-7,1.6-.9,4.8.9,7.3,1.5C315.75,368.7,314.55,371.3,312.85,375Z" transform="translate(-243.8 -159.3)"/><path d="M291.15,373.2c3.5,1.2,5.8,2,8,2.7-1.6,2.6-2.8,5.8-5,7.7-.8.7-4.1-1.5-6.3-2.4C288.85,378.9,289.75,376.5,291.15,373.2Z" transform="translate(-243.8 -159.3)"/><path d="M287.55,370.2c-3.4-2-5.6-3.2-7.7-4.4,1.3-1.9,2.3-5.2,3.9-5.5,2.5-.5,5.5,1,8.2,1.7C290.75,364.2,289.55,366.5,287.55,370.2Z" transform="translate(-243.8 -159.3)"/><path d="M306,362.9c-3.8-1.6-6.1-2.6-8.5-3.6,1.4-2.1,2.4-5.4,4.3-6,2.2-.7,5.2.8,7.8,1.4C308.55,356.9,307.55,359.2,306,362.9Z" transform="translate(-243.8 -159.3)"/><path d="M289.35,327.3c-2.2,3.2-3.2,6.2-4.6,6.4-2.5.3-5.2-1.1-7.8-1.8,1-2.1,1.6-5.5,3.1-6C282.25,325.2,285.15,326.5,289.35,327.3Z" transform="translate(-243.8 -159.3)"/><path d="M275.55,348.5c1.3-1.8,2.4-4.8,4-5.1,2.3-.5,5,1,7.5,1.6-.7,2-1,5.2-2.3,5.7-2.5.9-5.5.2-8.3.1A9.17,9.17,0,0,0,275.55,348.5Z" transform="translate(-243.8 -159.3)"/><path d="M952.35,335.8c5.4,0,9.5-.3,13.5.1.6.1,1,2.9,1.4,4.4-4.1.3-8.2.8-12.3.7C954.35,341,953.75,338.6,952.35,335.8Z" transform="translate(-243.8 -159.3)"/><path d="M956.15,350.3h12c-.2,1.4-.4,4.1-.6,4-4-.2-7.9-.6-11.8-1C955.85,352.3,956.05,351.3,956.15,350.3Z" transform="translate(-243.8 -159.3)"/><path d="M945.05,372.3c2,.3,4.5,0,6,1s2,3.6,2.9,5.4c-1.8.3-4.1,1.4-5.4.7-1.9-1.1-3.2-3.4-4.7-5.1A8.17,8.17,0,0,0,945.05,372.3Z" transform="translate(-243.8 -159.3)"/><path d="M316.85,299.5c1.1-1.5,2-4.2,3.2-4.3,1.9-.1,5,.9,5.6,2.4s-.7,4.8-2.2,5.5c-1.8.9-4.5,0-6.9-.1C316.65,301.8,316.75,300.7,316.85,299.5Z" transform="translate(-243.8 -159.3)"/><path d="M962.45,383.1c2,.4,4.4.2,6,1.2,1.4.9,2,3.1,3,4.8-2,.3-4.4,1.3-6.1.6s-2.7-3.1-4-4.7C961.65,384.4,962.05,383.8,962.45,383.1Z" transform="translate(-243.8 -159.3)"/><path d="M959.55,360.4c1.3,2.6,2.1,4.2,3,5.8-2.3.5-4.7,1.6-6.8,1.2-1.4-.3-2.3-2.8-3.5-4.4C954.35,362.3,956.55,361.5,959.55,360.4Z" transform="translate(-243.8 -159.3)"/></g><g id="skeleton"><polygon class="cls-2" points="275 190.2 325.3 406 441.7 405.2 487.9 190.2 275 190.2"/><polyline class="cls-2" points="274 190.2 171.3 190.2 8 196.5"/><polyline class="cls-2" points="489.4 189.8 592.6 189.8 755.9 196.2"/><polyline class="cls-2" points="325.3 406 331.7 566.2 331.7 774.2"/><polyline class="cls-2" points="441.7 405.2 441.7 566.2 441.7 774.2"/><polyline class="cls-2" points="380.7 10.7 360.9 13.2 348.4 22.7 339.8 36.8 337.3 46.1 336.5 57.8 336.5 67.3 337.3 89 344.1 109 355.7 121.5 365.7 128.2 380.7 131.4 395.5 128.6 405.5 121.9 417.1 109.3 423.9 89.3 424.7 67.7 424.7 58.1 423.9 46.4 421.4 37.2 413.2 22.7 400.6 13.2 380.7 10.7"/><polyline class="cls-2" points="344.7 47.6 348.7 43.9 354.9 42.9 362.2 42.9 372 46.9"/><polygon class="cls-2" points="350.9 55.8 356.1 52.1 362.4 52.1 367.6 56.3 362.4 57.3 356.1 58.1 350.9 55.8"/><polyline class="cls-2" points="369.2 73.9 374.4 73.9 379.9 74.7 379.9 69.4 379.9 62.3 379.9 56.8 379.9 51"/><polyline class="cls-2" points="416.2 47.2 412.2 44.3 405.9 42.8 398.6 43.2 388.6 46.4"/><polygon class="cls-2" points="410.3 55.8 405 52.1 398.7 52.1 393.6 56.3 398.7 57.3 405 58.1 410.3 55.8"/><polyline class="cls-2" points="390.3 73.9 385.3 73.9 379.9 74.7"/><polygon class="cls-2" points="363.2 96 370.1 92.6 376.6 91.5 380.7 92.4 384.9 91.5 391.3 92.6 398.2 96 391.8 102.3 384.7 105.1 380.7 105.6 376.6 105.1 369.6 102.3 363.2 96"/><polyline class="cls-2" points="363.2 96 366.8 96.3 376.8 95.5 380.7 96 384.7 95.5 394.6 96.3 398.2 96"/><polyline class="cls-2" points="363.2 96 366.8 96.3 376.8 98.4 380.7 99.2 384.7 98.4 394.6 96.3 398.2 96"/><circle id="rightShoulder" cx="275.1" cy="189.9" r="8.2"/><circle id="rightElbow" cx="171.6" cy="190" r="8.2"/><circle id="rightWrist" cx="8.2" cy="196.4" r="8.2"/><circle id="rightHip" cx="325.4" cy="405.7" r="8.2"/><circle id="rightKnee" cx="331.8" cy="565.9" r="8.2"/><circle id="rightAnkle" cx="331.8" cy="773.9" r="8.2"/><circle id="leftElbow" cx="592.4" cy="189.6" r="8.2"/><circle id="leftWrist" cx="755.8" cy="195.9" r="8.2"/><circle id="leftHip" cx="441.8" cy="404.9" r="8.2"/><circle id="leftKnee" cx="441.8" cy="565.9" r="8.2"/><circle id="leftAnkle" cx="441.8" cy="773.9" r="8.2"/><circle id="rightEye0" cx="350.9" cy="55.8" r="0.8"/><circle id="rightBrow1" cx="348.7" cy="43.9" r="0.8"/><circle id="rightBrow4" cx="372" cy="46.9" r="0.8"/><circle id="nose1" cx="379.9" cy="56.8" r="0.8"/><circle id="rightBrow3" cx="362.2" cy="42.9" r="0.8"/><circle id="rightEye1" cx="356.1" cy="52.1" r="0.8"/><circle id="rightBrow0" cx="344.7" cy="47.6" r="0.8"/><circle id="rightBrow2" cx="354.9" cy="42.9" r="0.8"/><circle id="rightEye5" cx="356.1" cy="58.1" r="0.8"/><circle id="rightEye2" cx="362.4" cy="52.1" r="0.8"/><circle id="rightEye3" cx="367.6" cy="56.3" r="0.8"/><circle id="nose0" cx="379.9" cy="51" r="0.8"/><circle id="nose3" cx="379.9" cy="69.4" r="0.8"/><circle id="rightNose0" cx="369.2" cy="73.9" r="0.8"/><circle id="rightMouthCorner" cx="363.2" cy="96" r="0.8"/><circle id="rightNose1" cx="374.4" cy="73.9" r="0.8"/><circle id="rightUpperLipTop0" cx="370.1" cy="92.6" r="0.8"/><circle id="nose2" cx="379.9" cy="62.3" r="0.8"/><circle id="nose4" cx="379.9" cy="74.7" r="0.8"/><circle id="upperLipTopMid" cx="380.7" cy="92.4" r="0.8"/><circle id="rightUpperLipTop1" cx="376.6" cy="91.5" r="0.8"/><path id="rightMiddleLip" d="M610.6,254.8a.8.8,0,1,1-.8.8A.86.86,0,0,1,610.6,254.8Z" transform="translate(-243.8 -159.3)"/><circle id="lowerLipBottomMid" cx="380.7" cy="105.6" r="0.8"/><circle id="upperLipBottomMid" cx="380.7" cy="96" r="0.8"/><circle id="lowerLipTopMid" cx="380.7" cy="99.1" r="0.8"/><circle id="rightUpperLipBottom1" cx="376.8" cy="95.5" r="0.8"/><circle id="rightLowerLipTop0" cx="376.8" cy="98.4" r="0.8"/><circle id="rightLowerLipBottom1" cx="376.6" cy="105.1" r="0.8"/><circle id="rightLowerLipBottom0" cx="369.6" cy="102.3" r="0.8"/><circle id="rightEye4" cx="362.4" cy="57.3" r="0.8"/><circle id="jawMid" cx="380.7" cy="131.4" r="0.8"/><circle id="rightJaw7" cx="365.7" cy="128.2" r="0.8"/><circle id="rightJaw6" cx="355.7" cy="121.5" r="0.8"/><circle id="rightJaw5" cx="344.1" cy="109" r="0.8"/><circle id="rightJaw4" cx="337.3" cy="89" r="0.8"/><circle id="rightJaw3" cx="336.5" cy="67.3" r="0.8"/><circle id="rightJaw2" cx="336.5" cy="57.8" r="0.8"/><circle id="rightJaw1" cx="337.3" cy="46.1" r="0.8"/><circle id="rightJaw0" cx="339.8" cy="36.8" r="0.8"/><circle id="topMid" cx="380.9" cy="10.7" r="0.8"/><circle id="leftTop0" cx="400.6" cy="13.2" r="0.8"/><circle id="leftTop1" cx="413.2" cy="22.7" r="0.8"/><circle id="leftEye0" cx="410.5" cy="55.8" r="0.8"/><circle id="leftBrow1" cx="412.4" cy="44.3" r="0.8"/><circle id="leftBrow4" cx="388.8" cy="46.4" r="0.8"/><circle id="leftBrow3" cx="398.8" cy="43.2" r="0.8"/><circle id="leftEye1" cx="405.3" cy="52.1" r="0.8"/><circle id="leftBrow0" cx="416.4" cy="47.2" r="0.8"/><circle id="leftBrow2" cx="406.1" cy="42.8" r="0.8"/><circle id="leftEye5" cx="405.3" cy="58.1" r="0.8"/><circle id="leftEye2" cx="399" cy="52.1" r="0.8"/><circle id="leftEye3" cx="393.8" cy="56.3" r="0.8"/><circle id="leftNose0" cx="390.3" cy="73.9" r="0.8"/><circle id="leftMouthCorner" cx="398.2" cy="96" r="0.8"/><circle id="leftNose1" cx="385.5" cy="73.9" r="0.8"/><circle id="leftUpperLipTop0" cx="391.3" cy="92.6" r="0.8"/><circle id="leftUpperLipTop1" cx="384.9" cy="91.5" r="0.8"/><path id="leftMiddleLip" d="M638.4,254.8a.8.8,0,1,1-.8.8A.86.86,0,0,1,638.4,254.8Z" transform="translate(-243.8 -159.3)"/><circle id="leftUpperLipBottom1" cx="384.7" cy="95.5" r="0.8"/><circle id="leftLowerLipTop0" cx="384.7" cy="98.4" r="0.8"/><circle id="leftLowerLipBottom1" cx="384.9" cy="105.1" r="0.8"/><circle id="leftLowerLipBottom0" cx="391.8" cy="102.3" r="0.8"/><circle id="leftEye4" cx="399" cy="57.3" r="0.8"/><circle id="leftJaw7" cx="395.5" cy="128.6" r="0.8"/><circle id="leftJaw6" cx="405.5" cy="121.9" r="0.8"/><circle id="leftJaw5" cx="417.1" cy="109.3" r="0.8"/><circle id="leftJaw4" cx="423.9" cy="89.3" r="0.8"/><circle id="leftJaw3" cx="424.7" cy="67.7" r="0.8"/><circle id="leftJaw2" cx="424.7" cy="58.1" r="0.8"/><circle id="leftJaw1" cx="423.9" cy="46.4" r="0.8"/><circle id="leftJaw0" cx="421.4" cy="37.2" r="0.8"/><circle id="rightTop0" cx="361" cy="13.2" r="0.8"/><circle id="rightTop1" cx="348.4" cy="22.7" r="0.8"/><circle id="leftShoulder" cx="488" cy="189.9" r="8.2"/></g></svg>