<?xml version="1.0" encoding="utf-8"?>
<!-- Generator: Adobe Illustrator 25.3.1, SVG Export Plug-In . SVG Version: 6.00 Build 0)  -->
<svg version="1.1" id="Layer_1" xmlns="http://www.w3.org/2000/svg" xmlns:xlink="http://www.w3.org/1999/xlink" x="0px" y="0px"
	 viewBox="0 0 1200 1200" style="enable-background:new 0 0 1200 1200;" xml:space="preserve">
<style type="text/css">
	.st0{fill:#FFFFFF;}
	.st1{fill:none;stroke:#000000;stroke-miterlimit:10;}
</style>
<g id="illustration">
	<path class="st0" d="M574.8,921.2c-1.4-2.7-2.8-5.5-4.3-8.2c3.5-1.5,6.9-4.1,10.4-4.2c2.3-0.1,4.8,3.3,7.2,5.2
		c-2.3,2.4-4.6,4.9-6.9,7.3C579.2,921.2,577,921.2,574.8,921.2z"/>
	<path class="st0" d="M677.5,921.2c-2.3-2.2-5.1-4.2-6.6-6.8c-0.4-0.7,3-5,4.9-5.2c3.7-0.3,8.4,0.1,11,2.2c5.2,4.2,0,7-2.9,9.8
		C681.8,921.2,679.8,921.2,677.5,921.2z"/>
	<path class="st0" d="M558.8,921.2c-0.5-3.2-0.9-6.4-1.4-9.6c2.1,0.1,4.7-0.6,6.2,0.4c4.1,2.7,2.8,6.1-0.1,9.2
		C562,921.2,560.3,921.2,558.8,921.2z"/>
	<path class="st0" d="M695.2,921.2c-0.9-1.6-2.8-3.6-2.4-4.7c0.9-2.3,2.9-4.3,4.8-5.8c0.7-0.5,4,0.9,3.9,1.3c-0.2,3.1-1,6.2-1.6,9.2
		C698.5,921.2,696.8,921.2,695.2,921.2z"/>
	<path class="st0" d="M626.5,159.3c4.8,0.4,9.6,0.4,14.3,1.3c40.8,7.9,58.7,38.7,46,78.9c-2.9,9.1-5.3,18.3-8.3,27.4
		c-2.5,7.6-7.7,12-16,12.3c-7.5,0.2-15.8-1.5-19.9,7.8c-0.2,0.5-1.4,1-2.1,1c-9.4,0-18.7,0-28.1-0.1c-0.9,0-2.3-0.7-2.6-1.5
		c-3.3-7.3-9.7-7.2-16.2-7.1c-12.1,0.1-17.5-4.7-19.4-16.5c-0.7-4.4-2-8.8-3.8-12.9c-6.4-14.8-9.3-30.2-6.4-46.2
		c4.6-25.1,26.5-42.2,55.2-43.8c2.4-0.1,4.8,0,7.2,0C626.5,159.6,626.5,159.5,626.5,159.3z"/>
	<path d="M610.2,248c0.1-8.8-3.1-12.2-11.7-12.3c-9.9-0.2-16.2,7.4-16.3,19.5c-0.1,6.4,5,10.3,13.3,10.3
		C605.5,265.6,610,260.1,610.2,248z"/>
	<path d="M643,248c0.1,12,4.7,17.5,14.8,17.5c8.2,0.1,13.4-3.9,13.5-10.3c0.1-11.8-6.5-19.7-16.3-19.5
		C646.2,235.8,642.8,239.3,643,248z"/>
	<path d="M626.2,280.6c0.4,0.6,0.8,1.1,1.2,1.7c3.8-2.6,10.7-5.1,10.8-7.9c0.3-7.1-6.7-6.6-11.9-7c-1.6-0.1-3.5-0.2-4.7,0.6
		c-2.6,1.8-4.7,4.2-7.1,6.4c2.3,1.9,4.5,4,7,5.6C622.8,280.7,624.8,280.4,626.2,280.6z"/>
	<path class="st0" d="M592,530.8c6.1,0.1,12.5,3.8,17.6,10.4c8.3,10.8,29.1,10.7,37.9,0.1c2.3-2.8,5.2-5.5,8.3-7.3
		c9.3-5.5,19.9-3.6,25.1,3.9c5.4,7.7,3.4,20.7-5.3,26.4c-7.1,4.7-11.4,9.7-13.2,18.4c-2.3,10.9-15.2,14.6-26.2,7.9
		c-6.3-3.8-10.6-4.4-17.2-0.2c-11.5,7.3-24.7-0.2-27.5-13.7c-0.7-3.4-5-6.9-8.5-8.8c-9.7-5.4-13.7-13.3-11-23.9
		C574,535.5,580.5,530.8,592,530.8z"/>
	<path d="M630.7,569.1c0.3,0.6,0.6,1.2,1,1.8c2.1-1.7,5.2-3.1,6.1-5.3c1.1-2.5,1.2-6.3,0.1-8.7c-0.5-1.2-4.9-0.6-7.6-0.8
		c-2.1-0.2-4.1-0.1-6.2-0.5c-6.3-1.2-8.9,1.7-7.3,7.9C618.8,571.5,624.5,570.8,630.7,569.1z"/>
	<path d="M639.5,577.8c5.5-0.2,6.3,11.3,13.4,4.9c1.8-1.6,2-8.2,0.4-9.7C648,568.1,643.8,572.9,639.5,577.8z"/>
	<path d="M617.3,578.1c-5.3-5.2-9.3-9.8-14.7-5.2c-1.7,1.4-1.7,7.9,0,9.5C609.2,588.8,610.8,578.5,617.3,578.1z"/>
	<path class="st0" d="M559.8,665.3c0-12.8-0.1-25.6,0.1-38.5c0.1-5-0.4-9.1-5.4-12.3c-2.2-1.4-2.1-6.2-3.1-9.5
		c2.7-0.7,5.4-1.4,8.1-2.2c3.1-0.9,6.2-2.2,9.4-2.8c2.8-0.5,7.5-1.2,8.3,0.2c1.4,2.2,1.1,6.1,0.4,9c-1.4,5.2-5.1,10.1-5.2,15.3
		c-0.7,27-0.8,53.9-0.7,80.9c0,3,3.3,5.8,4.7,8.9c1.4,3,3.9,6.9,3,9.2c-0.8,2.1-5.6,3.1-8.8,3.6c-3.9,0.6-8,0.6-11.8,0
		c-2.8-0.5-5.4-2.4-8.1-3.7c1.2-2.4,2.4-4.9,3.5-7.3c1.2-2.8,3.3-5.6,3.4-8.4c0.3-14.2,0.2-28.3,0.2-42.5
		C558.2,665.3,559,665.3,559.8,665.3z"/>
	<path class="st0" d="M699.3,726.8c-3.9,0.3-7.9,1.1-11.7,0.6c-2.9-0.4-6.8-1.8-8.1-3.9c-1-1.8,0.3-7.2,2-8
		c6.7-3.1,6.4-8.5,6.4-14.1c-0.3-25.9-0.4-51.8-1.2-77.6c-0.1-4.6-3.5-9.1-4.8-13.8c-0.8-2.9-0.7-6.2-1.1-9.3
		c3.3-0.1,6.7-0.4,9.9-0.1c3.2,0.3,6.3,1.2,9.5,2.1c2.5,0.7,7,1.7,6.9,2.5c-0.1,3.3-1.3,6.6-2.6,9.8c-1.5,3.6-5.2,7-5.2,10.5
		c0.2,27.2,1.1,54.5,2,81.7c0.1,2.9,1.7,5.9,2.9,8.7c1.1,2.7,4.4,6.3,3.7,7.6c-1.4,2.4-5.2,3.5-8,5.1
		C699.8,727.8,699.5,727.3,699.3,726.8z"/>
	<path class="st0" d="M638.7,392.2c0.7,6.6,2.6,13.3,1.8,19.7c-1.1,8.8-0.2,18.3-2.2,26.3c-2.5,9.9,0.5,18.6-0.2,27.8
		c-0.2,2.9-0.9,7.2-2.8,8.1c-2.8,1.4-7.3,1.4-10.2,0.1c-1.9-0.9-3.1-5.2-3-8c0.3-6,1.7-12,2.3-18c0.2-1.7-1-3.5-1.1-5.3
		c-1.1-11.6-2.2-23.2-3.1-34.8c-0.3-4.3-0.7-8.8,0.1-13c1.2-5.6,1.9-13,5.7-16C632.8,373.5,640.8,381.1,638.7,392.2z"/>
	<path class="st0" d="M561.5,874.8c-0.3-3.4-0.9-6.9-1-10.3c-0.5-33.9-0.9-67.9-1.3-101.8c-0.1-4.7,0.1-9-6.8-9.4
		c-1.7-0.1-5-5.4-4.4-7.5c0.7-2.9,4.1-5.8,7-7.1c3.4-1.5,7.5-1.8,11.3-1.5c3.3,0.2,8.2,1,9.4,3.3c1.4,2.4-0.3,6.8-1.3,10.2
		c-1.1,3.8-4.1,7.3-4.2,11c-0.9,32.9-1.1,65.7-1.9,98.6c-0.1,5-1.7,9.9-2.6,14.9C564.2,874.9,562.8,874.8,561.5,874.8z"/>
	<path class="st0" d="M699,754.9c-0.4,40.3-0.8,80-1.1,119.8c-1.3,0.2-2.5,0.4-3.8,0.5c-1.1-3.9-2.9-7.8-3.3-11.9
		c-0.9-10.9-1.4-21.9-1.5-32.9c-0.3-22.2-0.1-44.4-0.2-66.6c0-5.2,0.5-10.3-4.9-14.2c-1.8-1.3-2.2-7-0.9-9.3
		c1.3-2.2,5.6-3.2,8.7-3.4c4-0.2,8.4,0.2,12,1.7c2.9,1.2,6.5,4.3,6.9,7.1c0.4,2.4-3,5.6-5.2,8C705,754.6,702.8,754.3,699,754.9z"/>
	<path class="st0" d="M723.5,354.4c0.2-2.3,0.1-4.7,0.7-6.9c0.5-1.8,1.5-4.5,2.8-4.9c1.9-0.5,5.5,0,6.2,1.3
		c3.1,5.3,7.8,4.8,12.6,4.7c12.8-0.3,25.6-0.3,38.5-0.9c4.1-0.2,8-2.1,12.1-2.7c2.5-0.4,5.8-0.8,7.4,0.5c1.5,1.2,1.5,4.6,1.7,7.1
		c0.2,2.3,0.3,4.7-0.2,7s-1.4,5.8-2.9,6.3c-2.2,0.7-6.7-0.1-7.4-1.6c-2.7-5.5-7-5.7-12-5.6c-14.2,0.4-28.3,0.4-42.5,0.9
		c-3.3,0.1-6.5,1.9-9.8,2.5c-2.6,0.4-6,1.1-7.8-0.2c-1.5-1-1.2-4.7-1.7-7.2C722,354.5,722.8,354.4,723.5,354.4z"/>
	<path class="st0" d="M455.5,359.8c0-5.6-0.7-10.9,0.3-15.9c0.3-1.5,5-3.5,7.5-3.2c7.5,0.8,14.8,3.2,22.3,4
		c10.1,1,20.3,1.5,30.4,1.2c3.9-0.1,7.8-2.9,11.8-4.3c2.1-0.7,4.5-1.8,6.3-1.3c1.4,0.4,2.4,3,3,4.8c0.9,2.6,1.6,5.4,1.9,8.2
		c0.2,2.2,0.3,5.2-1,6.4c-1.3,1.3-4.4,1.4-6.5,1c-6.4-1.2-12.6-3.5-19.1-4.1c-12-1-24-1.5-36-1.4c-3.3,0-7.2,2.3-9.8,4.6
		C462.5,363.5,457,363.8,455.5,359.8z"/>
	<path class="st0" d="M341.8,358.3c-8.9,3.9-18.1,0.9-21.8-7.2c-3.9-8.5-1.2-18.7,5.6-21.7c8-3.5,19.9,1.9,24,10.8
		C353,347.6,349.9,354.8,341.8,358.3z"/>
	<path class="st0" d="M444.2,363.3c-2.1-0.6-4.5-1.3-6.9-2.1c-4-1.4-7.9-3.9-11.9-4c-18.4-0.2-36.8,0.2-55.2,0.4
		c-1.6,0-3.3,0.4-4.8-0.1c-2.2-0.8-4.1-2.2-6.2-3.3c2.1-1.1,4.2-2.9,6.3-3.1c18.1-0.9,36.2-1.4,54.3-2.3c6.3-0.3,13.5,1.2,17.3-6.9
		c0.4-1,8-0.1,8.1,0.5c0.9,6.1,1,12.4,1.2,18.6C446.5,361.6,445.5,362.1,444.2,363.3z"/>
	<path class="st0" d="M815.7,345.3c2.9,0.6,8.1,0.2,9,2c2.6,5.1,6.7,5.7,11.2,6c19.7,1.3,39.4,2.4,59,3.9c2.3,0.2,4.5,2.4,6.7,3.6
		c-2.2,0.9-4.4,2.7-6.6,2.7c-20.3-0.4-40.5-1.4-60.8-1.7c-3.5,0-7,2.4-10.5,3.4c-2.4,0.7-5.5,2.1-7.3,1.3c-1.7-0.8-3-4.2-3-6.5
		C813.5,356,814.7,351.8,815.7,345.3z"/>
	<path class="st0" d="M651.8,302.1c0.4,10.4-3.7,16-11.5,16.8c-9.6,0.9-19.6,1.2-29.1-0.4c-8.4-1.4-12.3-10.8-9.8-19
		c0.5-1.7,2.6-2.9,3.9-4.3c1.5,1.5,4.4,3.1,4.3,4.5c-0.4,6.9,3.7,8.1,9,8.3c4.5,0.1,9.1,0.3,13.6,0c5.6-0.3,11.9-0.1,10.4-9
		c-0.2-1.1,2.1-3.6,3.2-3.6c1.8,0,4.1,1.2,5.1,2.6C652,299.6,651.8,302.1,651.8,302.1z"/>
	<path class="st0" d="M920.2,364.5c-7.4-3.2-11-9.9-8.7-15.8c3.2-8,15.2-13.2,22.9-9.9c6.3,2.8,9,11.9,5.7,19.5
		C937,365.4,928.5,368,920.2,364.5z"/>
	<path class="st0" d="M704.7,879.5c0-35.1,0-70.2,0-105.2c0.7-0.2,1.5-0.4,2.2-0.6c0.9,1.8,2.6,3.6,2.7,5.5
		c0.7,28.8,1.4,57.7,1.7,86.5c0,4.9-2.2,9.8-3.4,14.7C706.8,880.1,705.7,879.8,704.7,879.5z"/>
	<path class="st0" d="M554.2,774.5c0,35,0,70.1,0,105.1c-0.8,0.2-1.7,0.3-2.5,0.5c-1.1-3-3-6-3.1-9.1c-0.5-17.9-0.9-35.8-0.8-53.6
		c0.1-11.8,0.8-23.5,1.5-35.3c0.2-2.8,1.3-5.5,1.9-8.3C552.2,774,553.2,774.2,554.2,774.5z"/>
	<path class="st0" d="M645.8,445.2c22,10,41.8,17.2,60.6-1.8c3.9,6.8-0.5,11-3.7,14.5c-11,11.8-24.6,9.6-38.1,5.5
		C656.3,460.8,649.7,456,645.8,445.2z"/>
	<path class="st0" d="M553,443.1c19.1,19.1,38.8,12.3,59.8,2.4c-1.4,9.4-7.2,13.4-13.7,16.1c-13.2,5.5-26.7,8.2-39.5-1.1
		C553.5,456,551.2,450.3,553,443.1z"/>
	<path class="st0" d="M583.8,442.9c-9.7-2.2-17-3.3-24-5.7c-3.2-1.1-5.9-4.3-8.1-7.2c-1-1.2-0.1-3.9-0.1-5.9
		c1.9,0.2,4.1-0.3,5.6,0.6c15.7,9.3,31.9,8.3,48.6,3.2c2.1-0.6,4.6,0.2,7,0.3c-1.3,2.1-2,5.5-3.9,6.2
		C600.2,437.8,591.2,440.4,583.8,442.9z"/>
	<path class="st0" d="M674.8,442.6c-6.7-2.3-15.6-5-24.3-8.4c-1.7-0.7-2.4-4.1-3.6-6.2c2.4,0,4.9-0.7,7.1,0
		c16.6,5.1,32.9,6,48.5-3.3c1.4-0.8,3.3-0.7,5-0.9c0.2,2,1.4,4.9,0.5,5.8c-3.2,3.3-6.6,7.1-10.8,8.7
		C691.2,440.4,684.3,440.8,674.8,442.6z"/>
	<path class="st0" d="M646.8,466.5c16.9,14.2,34.4,20.5,55.2,2.8c-0.8,5.2-0.3,8.5-1.7,10.1c-3,3.5-6.6,7.3-10.7,9.1
		c-11.7,5.1-32.3-0.6-40.4-10.6c-2-2.5-2.9-6-4.2-9.1C645.5,468.1,646.2,467.3,646.8,466.5z"/>
	<path class="st0" d="M557.8,469.3c20.7,18,38.1,11.2,55.2-2.8c0.6,0.9,1.1,1.8,1.7,2.7c-1.6,3.3-2.5,7.4-5.1,9.7
		c-10.5,9.4-23.1,14-37,10.3c-5.1-1.3-9.6-6.2-13.6-10.2C557.7,477.7,558.2,474.3,557.8,469.3z"/>
	<path class="st0" d="M700.8,905.2c-2.3,0.2-6.3,1.1-10.2,0.8c-2.8-0.2-6.9-1.5-7.8-3.5c-1-2.1,0.3-6.4,2-8.4c7-8.2,26-7.2,32.4,1.3
		c2.9,3.8,1.3,8.8-3.7,9.8C710,905.8,706.2,905.2,700.8,905.2z"/>
	<path class="st0" d="M558.3,905.5c-4,0-8.1,0.5-12-0.1c-5.8-0.9-7.9-6.6-4.2-10.7c6.1-6.8,22.8-8.7,29.6-2.6
		c2.6,2.3,3.3,6.6,4.9,10c-3.4,1.2-6.8,2.9-10.3,3.6c-2.5,0.5-5.3-0.3-8-0.5V905.5z"/>
	<path class="st0" d="M645.3,410.7c4.3-0.5,7-1.5,9.4-0.9c13.8,3.1,27.3,5,39.5-5.2c1.1-0.9,4.9-0.5,5.5,0.5
		c0.9,1.6,0.6,4.2,0.2,6.3c-0.2,1.1-1.6,2.1-2.6,2.9C685.5,424.7,657.2,423.7,645.3,410.7z"/>
	<path class="st0" d="M584.8,423.3c-7.4-2.9-15.4-5.6-22.8-9.4c-1.9-1-1.9-5.6-2.8-8.6c2.8,0.2,6.4-0.5,8.4,0.9
		c10.1,7.4,21,6.9,32.2,4.5c2.4-0.5,4.7-1.5,7-1.3c1.8,0.1,3.4,1.6,5.2,2.5c-1,1.4-1.7,3.8-3,4.2
		C601.5,418.6,593.8,420.7,584.8,423.3z"/>
	<path class="st0" d="M648.7,525.9c-2,0.3-4,0.6-6.6,1.1c2,6.7-1.9,9.6-7.4,9.2c-6.7-0.5-16.8,5.5-18.3-8c-0.1-1-4-1.5-7.2-4.4
		c2.2-1.2,4.6-3.6,6.5-3.3c9.4,1.7,18.5,2.4,27.9-0.1c1.7-0.5,4.1,1.7,6.2,2.6C649.5,524,649,524.9,648.7,525.9z"/>
	<path class="st0" d="M631.8,371.9c-5.5,1.8-12.1,3-14.4-5.6c-0.8-3-0.4-6.9,1.1-9.5c0.7-1.3,5-0.8,7.7-0.9c2.6-0.1,5.3-0.1,7.9,0.1
		c2.9,0.2,7.7,0,8.2,1.2c1.1,3.1,1.2,7.4-0.2,10.3c-1.1,2.4-5,3.5-7.7,5C634,372.6,633.2,372.3,631.8,371.9z"/>
	<path class="st0" d="M650.3,504.6c-8.5,6.7-13.8,14.2-23.4,10.9c-5.4-1.9-10.4-4.8-15.5-7.2c0.9-1.7,1.6-4.7,2.6-4.8
		c8.3-0.8,16.6-1.3,24.9-1.3C642.2,502,645.3,503.4,650.3,504.6z"/>
	<path class="st0" d="M612.2,395.3c-9.5,9.7-32.8,10.4-41.7,0.8c-1.6-1.7-1.6-5-2.4-7.5c2.5,0.3,5.6-0.4,7.3,0.9
		c8.3,6.4,17.4,5.7,26.8,3.8c3.2-0.7,6.5-0.6,9.8-0.9C612.2,393.4,612.2,394.3,612.2,395.3z"/>
	<path class="st0" d="M645.2,393c5,0,7.9-0.5,10.7,0.1c10.5,2.1,20.6,3.3,29.6-4.8c1.1-1,3.6-0.2,5.5-0.3c0,1.9,0.2,3.9-0.1,5.8
		c-0.1,0.9-1.1,1.8-1.9,2.5C679.8,405.6,656.7,404.9,645.2,393z"/>
	<path class="st0" d="M592.3,367.8c-3.4,0.4-4.7,0.4-5.8,0.8c-1.5,0.6-2.8,1.5-4.2,2.4c1.1,1.3,2.2,3.7,3.4,3.8
		c6,0.5,12.1,0.3,18.1,0.7c2.9,0.2,5.6,1.5,8.4,2.3c-2.3,1.8-4.4,4.5-6.9,5.1c-8.7,2.2-17.7,3.4-24.5-4.3c-1.9-2.2-3.2-7.1-2-9.1
		c1.5-2.6,5.8-3.8,9-5.3C588.5,364.1,589.7,365.7,592.3,367.8z"/>
	<path class="st0" d="M647.8,375.6c3.5,0,7,0,10.4,0c4,0,8,0.7,11.9,0c2.7-0.5,5.1-2.8,7.7-4.3c-2.3-1.4-4.6-2.8-8.1-4.8
		c1.5-0.7,3.8-2.5,4.5-2.1c3,2.2,6,4.7,7.9,7.7c0.7,1.2-1,4.6-2.4,6.3C673,386.9,655,386.6,647.8,375.6z"/>
	<path class="st0" d="M680,349.4c1.1,0,2.2-0.3,3.2,0c2.7,0.8,5.4,1.9,8.1,2.9c-2.5,1.7-4.8,4.5-7.5,5c-8.6,1.6-17.3,2.6-26,3.4
		c-2.3,0.2-4.7-1.4-7-2.1c1.6-1.8,2.9-4.8,4.8-5.3c8-1.9,16.2-3.1,24.3-4.6C680,348.9,680,349.2,680,349.4z"/>
	<path class="st0" d="M580.5,348.8c7.6,1.4,15.2,2.4,22.6,4.3c2.1,0.5,3.5,3.7,5.2,5.7c-2.3,0.7-4.8,2-7,1.8
		c-8.4-0.7-16.8-1.7-25.1-3.3c-2.9-0.5-5.4-2.9-8-4.5c2.8-1.2,5.5-2.5,8.3-3.5c1.2-0.4,2.6-0.1,4-0.1
		C580.5,349.2,580.5,349,580.5,348.8z"/>
	<path class="st0" d="M646.8,488.8c-10.8,8.1-20.7,8.4-30.9,3.3c-1.4-0.7-2.5-1.9-3.7-2.9c1.2-1.1,2.4-2.3,3.7-3.2
		c8.3-5.2,17.3-0.9,26-1.4C643.2,484.5,645,487.2,646.8,488.8z"/>
	<path class="st0" d="M366.9,342.7c8.7-4.9,47-4.8,53,1.9c-18.6,0.2-35.7,0.5-52.8,0.7C367,344.5,366.9,343.6,366.9,342.7z"/>
	<path class="st0" d="M841.8,349.6c5-6.4,42.7-6,52.5,0.2C877.3,352.2,860.3,349.8,841.8,349.6z"/>
	<path class="st0" d="M546.5,357.3c2.5-5.8,3.1-10.7,5.8-12.4c5.1-3.3,10.4-0.3,11.9,5c0.9,3.2-1.1,10-3,10.5
		C557.5,361.4,553,359,546.5,357.3z"/>
	<path class="st0" d="M714.5,359c-6.5,1.6-11,3.9-14.8,3.1c-1.8-0.4-3.8-7.4-2.9-10.5c1.6-5.3,6.8-8.3,11.9-4.9
		C711.3,348.5,712,353.3,714.5,359z"/>
	<path class="st0" d="M570.7,593.1c-4-4.9-8.1-7.6-8.3-10.7c-0.5-6.1,4.8-9.2,10-8.4c3.2,0.5,8.4,5.6,8,7.4
		C579.2,585.2,575.2,588,570.7,593.1z"/>
	<path class="st0" d="M688.2,593.1c-4.4-5-8.4-7.9-9.6-11.6c-0.5-1.6,4.8-6.7,8-7.3c5.3-0.9,10.5,2.2,9.9,8.3
		C696.2,585.6,692.2,588.3,688.2,593.1z"/>
	<path class="st0" d="M330,321.7c-2.7-2.3-6.5-4.1-7.8-7c-0.8-1.9,1.9-5.4,3.1-8.2c2.8,1.7,6.7,2.8,8.2,5.2c1.3,2-0.2,5.7-0.4,8.7
		C332,320.8,331,321.2,330,321.7z"/>
	<path class="st0" d="M305,336.6c-4.6-1.9-8.5-3.4-12.3-5c1.2-1.8,2.5-5.1,3.4-5c4.4,0.6,8.7,2.2,13,3.4
		C308,331.8,307,333.6,305,336.6z"/>
	<path class="st0" d="M295.1,337.8c4.4,1.7,7.7,3,11,4.3c-1.5,1.9-2.8,5.2-4.4,5.3c-3.4,0.1-6.9-1.4-10.4-2.2
		C292.5,343.2,293.5,341.2,295.1,337.8z"/>
	<path class="st0" d="M927.3,317.5c4.1-1.2,6.8-1.9,9.4-2.7c0.6,2.4,2.6,5.9,1.7,7c-1.8,2.2-5.2,3.1-8,4.5
		C929.5,323.9,928.8,321.5,927.3,317.5z"/>
	<path class="st0" d="M312.9,375c-3.5-1.5-5.6-2.4-7.7-3.4c1.4-2.4,2.3-5.8,4.4-7c1.6-0.9,4.8,0.9,7.3,1.5
		C315.8,368.7,314.5,371.3,312.9,375z"/>
	<path class="st0" d="M291.1,373.2c3.5,1.2,5.8,2,8,2.7c-1.6,2.6-2.8,5.8-5,7.7c-0.8,0.7-4.1-1.5-6.3-2.4
		C288.9,378.9,289.8,376.5,291.1,373.2z"/>
	<path class="st0" d="M287.5,370.2c-3.4-2-5.6-3.2-7.7-4.4c1.3-1.9,2.3-5.2,3.9-5.5c2.5-0.5,5.5,1,8.2,1.7
		C290.8,364.2,289.5,366.5,287.5,370.2z"/>
	<path class="st0" d="M306,362.9c-3.8-1.6-6.1-2.6-8.5-3.6c1.4-2.1,2.4-5.4,4.3-6c2.2-0.7,5.2,0.8,7.8,1.4
		C308.5,356.9,307.5,359.2,306,362.9z"/>
	<path class="st0" d="M289.4,327.3c-2.2,3.2-3.2,6.2-4.6,6.4c-2.5,0.3-5.2-1.1-7.8-1.8c1-2.1,1.6-5.5,3.1-6
		C282.2,325.2,285.1,326.5,289.4,327.3z"/>
	<path class="st0" d="M275.5,348.5c1.3-1.8,2.4-4.8,4-5.1c2.3-0.5,5,1,7.5,1.6c-0.7,2-1,5.2-2.3,5.7c-2.5,0.9-5.5,0.2-8.3,0.1
		C276.2,350,276,349.2,275.5,348.5z"/>
	<path class="st0" d="M952.3,335.8c5.4,0,9.5-0.3,13.5,0.1c0.6,0.1,1,2.9,1.4,4.4c-4.1,0.3-8.2,0.8-12.3,0.7
		C954.3,341,953.8,338.6,952.3,335.8z"/>
	<path class="st0" d="M956.2,350.3c4,0,8,0,12,0c-0.2,1.4-0.4,4.1-0.6,4c-4-0.2-7.9-0.6-11.8-1C955.8,352.3,956,351.3,956.2,350.3z"
		/>
	<path class="st0" d="M945,372.3c2,0.3,4.5,0,6,1c1.5,1.1,2,3.6,2.9,5.4c-1.8,0.3-4.1,1.4-5.4,0.7c-1.9-1.1-3.2-3.4-4.7-5.1
		C944.3,373.7,944.8,373,945,372.3z"/>
	<path class="st0" d="M316.9,299.5c1.1-1.5,2-4.2,3.2-4.3c1.9-0.1,5,0.9,5.6,2.4c0.6,1.4-0.7,4.8-2.2,5.5c-1.8,0.9-4.5,0-6.9-0.1
		C316.6,301.8,316.8,300.7,316.9,299.5z"/>
	<path class="st0" d="M962.5,383.1c2,0.4,4.4,0.2,6,1.2c1.4,0.9,2,3.1,3,4.8c-2,0.3-4.4,1.3-6.1,0.6c-1.7-0.7-2.7-3.1-4-4.7
		C961.7,384.4,962,383.8,962.5,383.1z"/>
	<path class="st0" d="M959.5,360.4c1.3,2.6,2.1,4.2,3,5.8c-2.3,0.5-4.7,1.6-6.8,1.2c-1.4-0.3-2.3-2.8-3.5-4.4
		C954.3,362.3,956.5,361.5,959.5,360.4z"/>
</g>
<g id="skeleton_1_">
	<polygon class="st1" points="555.8,352.5 570.1,570.3 686.5,569.5 704.7,354.5 	"/>
	<polyline class="st1" points="554.8,352.5 450.1,351.5 286.8,348.8 	"/>
	<polyline class="st1" points="706.2,354.1 809.4,355.1 969.7,355.5 	"/>
	<polyline class="st1" points="570.1,570.3 563.5,729.5 559.5,915.5 	"/>
	<polyline class="st1" points="686.5,569.5 695.5,728.5 701.5,911.5 	"/>
	<polyline class="st1" points="627.5,179 607.7,181.5 585.2,191 576.6,205.1 574.1,214.4 573.3,226.1 573.3,235.6 583.1,274.3 
		589.9,285.3 601.5,297.8 611.5,304.5 626.5,307.7 641.3,304.9 651.3,298.2 662.9,285.6 669.7,274.6 680.5,230 680.5,220.4 
		679.7,208.7 677.2,199.5 660,191 647.4,181.5 627.5,179 	"/>
	<polyline class="st1" points="584.5,221.9 588.5,218.2 594.7,217.2 602,217.2 611.8,221.2 	"/>
	<polygon class="st1" points="588.7,236.1 593.9,232.4 600.2,232.4 605.4,236.6 600.2,237.6 593.9,238.4 	"/>
	<polyline class="st1" points="616,260.2 621.2,260.2 626.7,261 626.7,255.7 626.7,248.6 626.7,243.1 626.7,237.3 	"/>
	<polyline class="st1" points="667,222.5 663,219.6 656.7,218.1 649.4,218.5 639.4,221.7 	"/>
	<polygon class="st1" points="665.1,237.1 659.8,233.4 653.5,233.4 648.4,237.6 653.5,238.6 659.8,239.4 	"/>
	<polyline class="st1" points="637.1,260.2 632.1,260.2 626.7,261 	"/>
	<polygon class="st1" points="609,281.3 615.9,277.9 622.4,276.8 626.5,277.7 630.7,276.8 637.1,277.9 644,281.3 637.6,287.6 
		630.5,290.4 626.5,290.9 622.4,290.4 615.4,287.6 	"/>
	<polyline class="st1" points="609,281.3 612.6,281.6 622.6,280.8 626.5,281.3 630.5,280.8 640.4,281.6 644,281.3 	"/>
	<polyline class="st1" points="609,281.3 612.6,281.6 622.6,283.7 626.5,284.5 630.5,283.7 640.4,281.6 644,281.3 	"/>
	<circle id="rightShoulder" cx="555.9" cy="352.2" r="8.2"/>
	<circle id="rightElbow" cx="450.4" cy="351.3" r="8.2"/>
	<circle id="rightWrist" cx="287" cy="348.7" r="8.2"/>
	<circle id="rightHip" cx="570.2" cy="570" r="8.2"/>
	<circle id="rightKnee" cx="563.6" cy="729.2" r="8.2"/>
	<circle id="rightAnkle" cx="559.6" cy="915.2" r="8.2"/>
	<circle id="leftElbow" cx="809.2" cy="354.9" r="8.2"/>
	<circle id="leftWrist" cx="969.6" cy="355.2" r="8.2"/>
	<circle id="leftHip" cx="686.6" cy="569.2" r="8.2"/>
	<circle id="leftKnee" cx="695.6" cy="728.2" r="8.2"/>
	<circle id="leftAnkle" cx="701.6" cy="911.2" r="8.2"/>
	<circle id="rightEye0" cx="588.7" cy="236.1" r="0.8"/>
	<circle id="rightBrow1" cx="588.5" cy="218.2" r="0.8"/>
	<circle id="rightBrow4" cx="611.8" cy="221.2" r="0.8"/>
	<circle id="nose1" cx="626.7" cy="243.1" r="0.8"/>
	<circle id="rightBrow3" cx="602" cy="217.2" r="0.8"/>
	<circle id="rightEye1" cx="593.9" cy="232.4" r="0.8"/>
	<circle id="rightBrow0" cx="584.5" cy="221.9" r="0.8"/>
	<circle id="rightBrow2" cx="594.7" cy="217.2" r="0.8"/>
	<circle id="rightEye5" cx="593.9" cy="238.4" r="0.8"/>
	<circle id="rightEye2" cx="600.2" cy="232.4" r="0.8"/>
	<circle id="rightEye3" cx="605.4" cy="236.6" r="0.8"/>
	<circle id="nose0" cx="626.7" cy="237.3" r="0.8"/>
	<circle id="nose3" cx="626.7" cy="255.7" r="0.8"/>
	<circle id="rightNose0" cx="616" cy="260.2" r="0.8"/>
	<circle id="rightMouthCorner" cx="609" cy="281.3" r="0.8"/>
	<circle id="rightNose1" cx="621.2" cy="260.2" r="0.8"/>
	<circle id="rightUpperLipTop0" cx="615.9" cy="277.9" r="0.8"/>
	<circle id="nose2" cx="626.7" cy="248.6" r="0.8"/>
	<circle id="nose4" cx="626.7" cy="261" r="0.8"/>
	<circle id="upperLipTopMid" cx="626.5" cy="277.7" r="0.8"/>
	<circle id="rightUpperLipTop1" cx="622.4" cy="276.8" r="0.8"/>
	<path id="rightMiddleLip" d="M612.6,280.8c0.4,0,0.8,0.4,0.8,0.8s-0.4,0.8-0.8,0.8s-0.8-0.4-0.8-0.8
		C611.8,281.2,612.2,280.8,612.6,280.8z"/>
	<circle id="lowerLipBottomMid" cx="626.5" cy="290.9" r="0.8"/>
	<circle id="upperLipBottomMid" cx="626.5" cy="281.3" r="0.8"/>
	<circle id="lowerLipTopMid" cx="626.5" cy="284.4" r="0.8"/>
	<circle id="rightUpperLipBottom1" cx="622.6" cy="280.8" r="0.8"/>
	<circle id="rightLowerLipTop0" cx="622.6" cy="283.7" r="0.8"/>
	<circle id="rightLowerLipBottom1" cx="622.4" cy="290.4" r="0.8"/>
	<circle id="rightLowerLipBottom0" cx="615.4" cy="287.6" r="0.8"/>
	<circle id="rightEye4" cx="600.2" cy="237.6" r="0.8"/>
	<circle id="jawMid" cx="626.5" cy="307.7" r="0.8"/>
	<circle id="rightJaw7" cx="611.5" cy="304.5" r="0.8"/>
	<circle id="rightJaw6" cx="601.5" cy="297.8" r="0.8"/>
	<circle id="rightJaw5" cx="589.9" cy="285.3" r="0.8"/>
	<circle id="rightJaw4" cx="583.1" cy="274.3" r="0.8"/>
	<circle id="rightJaw3" cx="573.3" cy="235.6" r="0.8"/>
	<circle id="rightJaw2" cx="573.3" cy="226.1" r="0.8"/>
	<circle id="rightJaw1" cx="574.1" cy="214.4" r="0.8"/>
	<circle id="rightJaw0" cx="576.6" cy="205.1" r="0.8"/>
	<circle id="topMid" cx="627.7" cy="179" r="0.8"/>
	<circle id="leftTop0" cx="647.4" cy="181.5" r="0.8"/>
	<circle id="leftTop1" cx="660" cy="191" r="0.8"/>
	<circle id="leftEye0" cx="665.3" cy="237.1" r="0.8"/>
	<circle id="leftBrow1" cx="663.2" cy="219.6" r="0.8"/>
	<circle id="leftBrow4" cx="639.6" cy="221.7" r="0.8"/>
	<circle id="leftBrow3" cx="649.6" cy="218.5" r="0.8"/>
	<circle id="leftEye1" cx="660.1" cy="233.4" r="0.8"/>
	<circle id="leftBrow0" cx="667.2" cy="222.5" r="0.8"/>
	<circle id="leftBrow2" cx="656.9" cy="218.1" r="0.8"/>
	<circle id="leftEye5" cx="660.1" cy="239.4" r="0.8"/>
	<circle id="leftEye2" cx="653.8" cy="233.4" r="0.8"/>
	<circle id="leftEye3" cx="648.6" cy="237.6" r="0.8"/>
	<circle id="leftNose0" cx="637.1" cy="260.2" r="0.8"/>
	<circle id="leftMouthCorner" cx="644" cy="281.3" r="0.8"/>
	<circle id="leftNose1" cx="632.3" cy="260.2" r="0.8"/>
	<circle id="leftUpperLipTop0" cx="637.1" cy="277.9" r="0.8"/>
	<circle id="leftUpperLipTop1" cx="630.7" cy="276.8" r="0.8"/>
	<path id="leftMiddleLip" d="M640.4,280.8c0.4,0,0.8,0.4,0.8,0.8s-0.4,0.8-0.8,0.8s-0.8-0.4-0.8-0.8
		C639.6,281.2,640,280.8,640.4,280.8z"/>
	<circle id="leftUpperLipBottom1" cx="630.5" cy="280.8" r="0.8"/>
	<circle id="leftLowerLipTop0" cx="630.5" cy="283.7" r="0.8"/>
	<circle id="leftLowerLipBottom1" cx="630.7" cy="290.4" r="0.8"/>
	<circle id="leftLowerLipBottom0" cx="637.6" cy="287.6" r="0.8"/>
	<circle id="leftEye4" cx="653.8" cy="238.6" r="0.8"/>
	<circle id="leftJaw7" cx="641.3" cy="304.9" r="0.8"/>
	<circle id="leftJaw6" cx="651.3" cy="298.2" r="0.8"/>
	<circle id="leftJaw5" cx="662.9" cy="285.6" r="0.8"/>
	<circle id="leftJaw4" cx="669.7" cy="274.6" r="0.8"/>
	<circle id="leftJaw3" cx="680.5" cy="230" r="0.8"/>
	<circle id="leftJaw2" cx="680.5" cy="220.4" r="0.8"/>
	<circle id="leftJaw1" cx="679.7" cy="208.7" r="0.8"/>
	<circle id="leftJaw0" cx="677.2" cy="199.5" r="0.8"/>
	<circle id="rightTop0" cx="607.8" cy="181.5" r="0.8"/>
	<circle id="rightTop1" cx="585.2" cy="191" r="0.8"/>
	<circle id="leftShoulder" cx="704.8" cy="354.2" r="8.2"/>
</g>
</svg>
