<?xml version="1.0" encoding="utf-8"?>
<!-- Generator: Adobe Illustrator 25.3.1, SVG Export Plug-In . SVG Version: 6.00 Build 0)  -->
<svg version="1.1" id="Layer_1" xmlns="http://www.w3.org/2000/svg" xmlns:xlink="http://www.w3.org/1999/xlink" x="0px" y="0px"
	 viewBox="0 0 1200 1200" style="enable-background:new 0 0 1200 1200;" xml:space="preserve">
<style type="text/css">
	.st0{fill:#FFFFFF;}
	.st1{fill:none;stroke:#000000;stroke-miterlimit:10;}
</style>
<g id="illustration">
	<path class="st0" d="M531.8,968.2c-1.4-2.7-2.8-5.5-4.3-8.2c3.5-1.5,6.9-4.1,10.4-4.2c2.3-0.1,4.8,3.3,7.2,5.2
		c-2.3,2.4-4.6,4.9-6.9,7.3C536.2,968.2,534,968.2,531.8,968.2z"/>
	<path class="st0" d="M634.5,968.2c-2.3-2.2-5.1-4.2-6.6-6.8c-0.4-0.7,3-5,4.9-5.2c3.7-0.3,8.4,0.1,11,2.2c5.2,4.2,0,7-2.9,9.8
		C638.8,968.2,636.8,968.2,634.5,968.2z"/>
	<path class="st0" d="M515.8,968.2c-0.5-3.2-0.9-6.4-1.4-9.6c2.1,0.1,4.7-0.6,6.2,0.4c4.1,2.7,2.8,6.1-0.1,9.2
		C519,968.2,517.3,968.2,515.8,968.2z"/>
	<path class="st0" d="M652.2,968.2c-0.9-1.6-2.8-3.6-2.4-4.7c0.9-2.3,2.9-4.3,4.8-5.8c0.7-0.5,4,0.9,3.9,1.3c-0.2,3.1-1,6.2-1.6,9.2
		C655.5,968.2,653.8,968.2,652.2,968.2z"/>
	<path class="st0" d="M583.5,206.3c4.8,0.4,9.6,0.4,14.3,1.3c40.8,7.9,58.7,38.7,46,78.9c-2.9,9.1-5.3,18.3-8.3,27.4
		c-2.5,7.6-7.7,12-16,12.3c-7.5,0.2-15.8-1.5-19.9,7.8c-0.2,0.5-1.4,1-2.1,1c-9.4,0-18.7,0-28.1-0.1c-0.9,0-2.3-0.7-2.6-1.5
		c-3.3-7.3-9.7-7.2-16.2-7.1c-12.1,0.1-17.5-4.7-19.4-16.5c-0.7-4.4-2-8.8-3.8-12.9c-6.4-14.8-9.3-30.2-6.4-46.2
		c4.6-25.1,26.5-42.2,55.2-43.8c2.4-0.1,4.8,0,7.2,0C583.5,206.6,583.5,206.5,583.5,206.3z"/>
	<path d="M567.2,295c0.1-8.8-3.1-12.2-11.7-12.3c-9.9-0.2-16.2,7.4-16.3,19.5c-0.1,6.4,5,10.3,13.3,10.3
		C562.5,312.6,567,307.1,567.2,295z"/>
	<path d="M600,295c0.1,12,4.7,17.5,14.8,17.5c8.2,0.1,13.4-3.9,13.5-10.3c0.1-11.8-6.5-19.7-16.3-19.5
		C603.2,282.8,599.8,286.3,600,295z"/>
	<path d="M583.2,327.6c0.4,0.6,0.8,1.1,1.2,1.7c3.8-2.6,10.7-5.1,10.8-7.9c0.3-7.1-6.7-6.6-11.9-7c-1.6-0.1-3.5-0.2-4.7,0.6
		c-2.6,1.8-4.7,4.2-7.1,6.4c2.3,1.9,4.5,4,7,5.6C579.8,327.7,581.8,327.4,583.2,327.6z"/>
	<path class="st0" d="M549,577.8c6.1,0.1,12.5,3.8,17.6,10.4c8.3,10.8,29.1,10.7,37.9,0.1c2.3-2.8,5.2-5.5,8.3-7.3
		c9.3-5.5,19.9-3.6,25.1,3.9c5.4,7.7,3.4,20.7-5.3,26.4c-7.1,4.7-11.4,9.7-13.2,18.4c-2.3,10.9-15.2,14.6-26.2,7.9
		c-6.3-3.8-10.6-4.4-17.2-0.2c-11.5,7.3-24.7-0.2-27.5-13.7c-0.7-3.4-5-6.9-8.5-8.8c-9.7-5.4-13.7-13.3-11-23.9
		C531,582.5,537.5,577.8,549,577.8z"/>
	<path d="M587.7,616.1c0.3,0.6,0.6,1.2,1,1.8c2.1-1.7,5.2-3.1,6.1-5.3c1.1-2.5,1.2-6.3,0.1-8.7c-0.5-1.2-4.9-0.6-7.6-0.8
		c-2.1-0.2-4.1-0.1-6.2-0.5c-6.3-1.2-8.9,1.7-7.3,7.9C575.8,618.5,581.5,617.8,587.7,616.1z"/>
	<path d="M596.5,624.8c5.5-0.2,6.3,11.3,13.4,4.9c1.8-1.6,2-8.2,0.4-9.7C605,615.1,600.8,619.9,596.5,624.8z"/>
	<path d="M574.3,625.1c-5.3-5.2-9.3-9.8-14.7-5.2c-1.7,1.4-1.7,7.9,0,9.5C566.2,635.8,567.8,625.5,574.3,625.1z"/>
	<path class="st0" d="M516.8,712.3c0-12.8-0.1-25.6,0.1-38.5c0.1-5-0.4-9.1-5.4-12.3c-2.2-1.4-2.1-6.2-3.1-9.5
		c2.7-0.7,5.4-1.4,8.1-2.2c3.1-0.9,6.2-2.2,9.4-2.8c2.8-0.5,7.5-1.2,8.3,0.2c1.4,2.2,1.1,6.1,0.4,9c-1.4,5.2-5.1,10.1-5.2,15.3
		c-0.7,27-0.8,53.9-0.7,80.9c0,3,3.3,5.8,4.7,8.9c1.4,3,3.9,6.9,3,9.2c-0.8,2.1-5.6,3.1-8.8,3.6c-3.9,0.6-8,0.6-11.8,0
		c-2.8-0.5-5.4-2.4-8.1-3.7c1.2-2.4,2.4-4.9,3.5-7.3c1.2-2.8,3.3-5.6,3.4-8.4c0.3-14.2,0.2-28.3,0.2-42.5
		C515.2,712.3,516,712.3,516.8,712.3z"/>
	<path class="st0" d="M656.3,773.8c-3.9,0.3-7.9,1.1-11.7,0.6c-2.9-0.4-6.8-1.8-8.1-3.9c-1-1.8,0.3-7.2,2-8
		c6.7-3.1,6.4-8.5,6.4-14.1c-0.3-25.9-0.4-51.8-1.2-77.6c-0.1-4.6-3.5-9.1-4.8-13.8c-0.8-2.9-0.7-6.2-1.1-9.3
		c3.3-0.1,6.7-0.4,9.9-0.1c3.2,0.3,6.3,1.2,9.5,2.1c2.5,0.7,7,1.7,6.9,2.5c-0.1,3.3-1.3,6.6-2.6,9.8c-1.5,3.6-5.2,7-5.2,10.5
		c0.2,27.2,1.1,54.5,2,81.7c0.1,2.9,1.7,5.9,2.9,8.7c1.1,2.7,4.4,6.3,3.7,7.6c-1.4,2.4-5.2,3.5-8,5.1
		C656.8,774.8,656.5,774.3,656.3,773.8z"/>
	<path class="st0" d="M595.7,439.2c0.7,6.6,2.6,13.3,1.8,19.7c-1.1,8.8-0.2,18.3-2.2,26.3c-2.5,9.9,0.5,18.6-0.2,27.8
		c-0.2,2.9-0.9,7.2-2.8,8.1c-2.8,1.4-7.3,1.4-10.2,0.1c-1.9-0.9-3.1-5.2-3-8c0.3-6,1.7-12,2.3-18c0.2-1.7-1-3.5-1.1-5.3
		c-1.1-11.6-2.2-23.2-3.1-34.8c-0.3-4.3-0.7-8.8,0.1-13c1.2-5.6,1.9-13,5.7-16C589.8,420.5,597.8,428.1,595.7,439.2z"/>
	<path class="st0" d="M518.5,921.8c-0.3-3.4-0.9-6.9-1-10.3c-0.5-33.9-0.9-67.9-1.3-101.8c-0.1-4.7,0.1-9-6.8-9.4
		c-1.7-0.1-5-5.4-4.4-7.5c0.7-2.9,4.1-5.8,7-7.1c3.4-1.5,7.5-1.8,11.3-1.5c3.3,0.2,8.2,1,9.4,3.3c1.4,2.4-0.3,6.8-1.3,10.2
		c-1.1,3.8-4.1,7.3-4.2,11c-0.9,32.9-1.1,65.7-1.9,98.6c-0.1,5-1.7,9.9-2.6,14.9C521.2,921.9,519.8,921.8,518.5,921.8z"/>
	<path class="st0" d="M656,801.9c-0.4,40.3-0.8,80-1.1,119.8c-1.3,0.2-2.5,0.4-3.8,0.5c-1.1-3.9-2.9-7.8-3.3-11.9
		c-0.9-10.9-1.4-21.9-1.5-32.9c-0.3-22.2-0.1-44.4-0.2-66.6c0-5.2,0.5-10.3-4.9-14.2c-1.8-1.3-2.2-7-0.9-9.3
		c1.3-2.2,5.6-3.2,8.7-3.4c4-0.2,8.4,0.2,12,1.7c2.9,1.2,6.5,4.3,6.9,7.1c0.4,2.4-3,5.6-5.2,8C662,801.6,659.8,801.3,656,801.9z"/>
	<path class="st0" d="M680.5,401.4c0.2-2.3,0.1-4.7,0.7-6.9c0.5-1.8,1.5-4.5,2.8-4.9c1.9-0.5,5.5,0,6.2,1.3
		c3.1,5.3,7.8,4.8,12.6,4.7c12.8-0.3,25.6-0.3,38.5-0.9c4.1-0.2,8-2.1,12.1-2.7c2.5-0.4,5.8-0.8,7.4,0.5c1.5,1.2,1.5,4.6,1.7,7.1
		c0.2,2.3,0.3,4.7-0.2,7s-1.4,5.8-2.9,6.3c-2.2,0.7-6.7-0.1-7.4-1.6c-2.7-5.5-7-5.7-12-5.6c-14.2,0.4-28.3,0.4-42.5,0.9
		c-3.3,0.1-6.5,1.9-9.8,2.5c-2.6,0.4-6,1.1-7.8-0.2c-1.5-1-1.2-4.7-1.7-7.2C679,401.5,679.8,401.4,680.5,401.4z"/>
	<path class="st0" d="M412.5,406.8c0-5.6-0.7-10.9,0.3-15.9c0.3-1.5,5-3.5,7.5-3.2c7.5,0.8,14.8,3.2,22.3,4
		c10.1,1,20.3,1.5,30.4,1.2c3.9-0.1,7.8-2.9,11.8-4.3c2.1-0.7,4.5-1.8,6.3-1.3c1.4,0.4,2.4,3,3,4.8c0.9,2.6,1.6,5.4,1.9,8.2
		c0.2,2.2,0.3,5.2-1,6.4c-1.3,1.3-4.4,1.4-6.5,1c-6.4-1.2-12.6-3.5-19.1-4.1c-12-1-24-1.5-36-1.4c-3.3,0-7.2,2.3-9.8,4.6
		C419.5,410.5,414,410.8,412.5,406.8z"/>
	<path class="st0" d="M298.8,405.3c-8.9,3.9-18.1,0.9-21.8-7.2c-3.9-8.5-1.2-18.7,5.6-21.7c8-3.5,19.9,1.9,24,10.8
		C310,394.6,306.9,401.8,298.8,405.3z"/>
	<path class="st0" d="M401.2,410.3c-2.1-0.6-4.5-1.3-6.9-2.1c-4-1.4-7.9-3.9-11.9-4c-18.4-0.2-36.8,0.2-55.2,0.4
		c-1.6,0-3.3,0.4-4.8-0.1c-2.2-0.8-4.1-2.2-6.2-3.3c2.1-1.1,4.2-2.9,6.3-3.1c18.1-0.9,36.2-1.4,54.3-2.3c6.3-0.3,13.5,1.2,17.3-6.9
		c0.4-1,8-0.1,8.1,0.5c0.9,6.1,1,12.4,1.2,18.6C403.5,408.6,402.5,409.1,401.2,410.3z"/>
	<path class="st0" d="M772.7,392.3c2.9,0.6,8.1,0.2,9,2c2.6,5.1,6.7,5.7,11.2,6c19.7,1.3,39.4,2.4,59,3.9c2.3,0.2,4.5,2.4,6.7,3.6
		c-2.2,0.9-4.4,2.7-6.6,2.7c-20.3-0.4-40.5-1.4-60.8-1.7c-3.5,0-7,2.4-10.5,3.4c-2.4,0.7-5.5,2.1-7.3,1.3c-1.7-0.8-3-4.2-3-6.5
		C770.5,403,771.7,398.8,772.7,392.3z"/>
	<path class="st0" d="M608.8,349.1c0.4,10.4-3.7,16-11.5,16.8c-9.6,0.9-19.6,1.2-29.1-0.4c-8.4-1.4-12.3-10.8-9.8-19
		c0.5-1.7,2.6-2.9,3.9-4.3c1.5,1.5,4.4,3.1,4.3,4.5c-0.4,6.9,3.7,8.1,9,8.3c4.5,0.1,9.1,0.3,13.6,0c5.6-0.3,11.9-0.1,10.4-9
		c-0.2-1.1,2.1-3.6,3.2-3.6c1.8,0,4.1,1.2,5.1,2.6C609,346.6,608.8,349.1,608.8,349.1z"/>
	<path class="st0" d="M877.2,411.5c-7.4-3.2-11-9.9-8.7-15.8c3.2-8,15.2-13.2,22.9-9.9c6.3,2.8,9,11.9,5.7,19.5
		C894,412.4,885.5,415,877.2,411.5z"/>
	<path class="st0" d="M661.7,926.5c0-35.1,0-70.2,0-105.2c0.7-0.2,1.5-0.4,2.2-0.6c0.9,1.8,2.6,3.6,2.7,5.5
		c0.7,28.8,1.4,57.7,1.7,86.5c0,4.9-2.2,9.8-3.4,14.7C663.8,927.1,662.7,926.8,661.7,926.5z"/>
	<path class="st0" d="M511.2,821.5c0,35,0,70.1,0,105.1c-0.8,0.2-1.7,0.3-2.5,0.5c-1.1-3-3-6-3.1-9.1c-0.5-17.9-0.9-35.8-0.8-53.6
		c0.1-11.8,0.8-23.5,1.5-35.3c0.2-2.8,1.3-5.5,1.9-8.3C509.2,821,510.2,821.2,511.2,821.5z"/>
	<path class="st0" d="M602.8,492.2c22,10,41.8,17.2,60.6-1.8c3.9,6.8-0.5,11-3.7,14.5c-11,11.8-24.6,9.6-38.1,5.5
		C613.3,507.8,606.7,503,602.8,492.2z"/>
	<path class="st0" d="M510,490.1c19.1,19.1,38.8,12.3,59.8,2.4c-1.4,9.4-7.2,13.4-13.7,16.1c-13.2,5.5-26.7,8.2-39.5-1.1
		C510.5,503,508.2,497.3,510,490.1z"/>
	<path class="st0" d="M540.8,489.9c-9.7-2.2-17-3.3-24-5.7c-3.2-1.1-5.9-4.3-8.1-7.2c-1-1.2-0.1-3.9-0.1-5.9
		c1.9,0.2,4.1-0.3,5.6,0.6c15.7,9.3,31.9,8.3,48.6,3.2c2.1-0.6,4.6,0.2,7,0.3c-1.3,2.1-2,5.5-3.9,6.2
		C557.2,484.8,548.2,487.4,540.8,489.9z"/>
	<path class="st0" d="M631.8,489.6c-6.7-2.3-15.6-5-24.3-8.4c-1.7-0.7-2.4-4.1-3.6-6.2c2.4,0,4.9-0.7,7.1,0
		c16.6,5.1,32.9,6,48.5-3.3c1.4-0.8,3.3-0.7,5-0.9c0.2,2,1.4,4.9,0.5,5.8c-3.2,3.3-6.6,7.1-10.8,8.7
		C648.2,487.4,641.3,487.8,631.8,489.6z"/>
	<path class="st0" d="M603.8,513.5c16.9,14.2,34.4,20.5,55.2,2.8c-0.8,5.2-0.3,8.5-1.7,10.1c-3,3.5-6.6,7.3-10.7,9.1
		c-11.7,5.1-32.3-0.6-40.4-10.6c-2-2.5-2.9-6-4.2-9.1C602.5,515.1,603.2,514.3,603.8,513.5z"/>
	<path class="st0" d="M514.8,516.3c20.7,18,38.1,11.2,55.2-2.8c0.6,0.9,1.1,1.8,1.7,2.7c-1.6,3.3-2.5,7.4-5.1,9.7
		c-10.5,9.4-23.1,14-37,10.3c-5.1-1.3-9.6-6.2-13.6-10.2C514.7,524.7,515.2,521.3,514.8,516.3z"/>
	<path class="st0" d="M657.8,952.2c-2.3,0.2-6.3,1.1-10.2,0.8c-2.8-0.2-6.9-1.5-7.8-3.5c-1-2.1,0.3-6.4,2-8.4c7-8.2,26-7.2,32.4,1.3
		c2.9,3.8,1.3,8.8-3.7,9.8C667,952.8,663.2,952.2,657.8,952.2z"/>
	<path class="st0" d="M515.3,952.5c-4,0-8.1,0.5-12-0.1c-5.8-0.9-7.9-6.6-4.2-10.7c6.1-6.8,22.8-8.7,29.6-2.6
		c2.6,2.3,3.3,6.6,4.9,10c-3.4,1.2-6.8,2.9-10.3,3.6c-2.5,0.5-5.3-0.3-8-0.5V952.5z"/>
	<path class="st0" d="M602.3,457.7c4.3-0.5,7-1.5,9.4-0.9c13.8,3.1,27.3,5,39.5-5.2c1.1-0.9,4.9-0.5,5.5,0.5
		c0.9,1.6,0.6,4.2,0.2,6.3c-0.2,1.1-1.6,2.1-2.6,2.9C642.5,471.7,614.2,470.7,602.3,457.7z"/>
	<path class="st0" d="M541.8,470.3c-7.4-2.9-15.4-5.6-22.8-9.4c-1.9-1-1.9-5.6-2.8-8.6c2.8,0.2,6.4-0.5,8.4,0.9
		c10.1,7.4,21,6.9,32.2,4.5c2.4-0.5,4.7-1.5,7-1.3c1.8,0.1,3.4,1.6,5.2,2.5c-1,1.4-1.7,3.8-3,4.2
		C558.5,465.6,550.8,467.7,541.8,470.3z"/>
	<path class="st0" d="M605.7,572.9c-2,0.3-4,0.6-6.6,1.1c2,6.7-1.9,9.6-7.4,9.2c-6.7-0.5-16.8,5.5-18.3-8c-0.1-1-4-1.5-7.2-4.4
		c2.2-1.2,4.6-3.6,6.5-3.3c9.4,1.7,18.5,2.4,27.9-0.1c1.7-0.5,4.1,1.7,6.2,2.6C606.5,571,606,571.9,605.7,572.9z"/>
	<path class="st0" d="M588.8,418.9c-5.5,1.8-12.1,3-14.4-5.6c-0.8-3-0.4-6.9,1.1-9.5c0.7-1.3,5-0.8,7.7-0.9c2.6-0.1,5.3-0.1,7.9,0.1
		c2.9,0.2,7.7,0,8.2,1.2c1.1,3.1,1.2,7.4-0.2,10.3c-1.1,2.4-5,3.5-7.7,5C591,419.6,590.2,419.3,588.8,418.9z"/>
	<path class="st0" d="M607.3,551.6c-8.5,6.7-13.8,14.2-23.4,10.9c-5.4-1.9-10.4-4.8-15.5-7.2c0.9-1.7,1.6-4.7,2.6-4.8
		c8.3-0.8,16.6-1.3,24.9-1.3C599.2,549,602.3,550.4,607.3,551.6z"/>
	<path class="st0" d="M569.2,442.3c-9.5,9.7-32.8,10.4-41.7,0.8c-1.6-1.7-1.6-5-2.4-7.5c2.5,0.3,5.6-0.4,7.3,0.9
		c8.3,6.4,17.4,5.7,26.8,3.8c3.2-0.7,6.5-0.6,9.8-0.9C569.2,440.4,569.2,441.3,569.2,442.3z"/>
	<path class="st0" d="M602.2,440c5,0,7.9-0.5,10.7,0.1c10.5,2.1,20.6,3.3,29.6-4.8c1.1-1,3.6-0.2,5.5-0.3c0,1.9,0.2,3.9-0.1,5.8
		c-0.1,0.9-1.1,1.8-1.9,2.5C636.8,452.6,613.7,451.9,602.2,440z"/>
	<path class="st0" d="M549.3,414.8c-3.4,0.4-4.7,0.4-5.8,0.8c-1.5,0.6-2.8,1.5-4.2,2.4c1.1,1.3,2.2,3.7,3.4,3.8
		c6,0.5,12.1,0.3,18.1,0.7c2.9,0.2,5.6,1.5,8.4,2.3c-2.3,1.8-4.4,4.5-6.9,5.1c-8.7,2.2-17.7,3.4-24.5-4.3c-1.9-2.2-3.2-7.1-2-9.1
		c1.5-2.6,5.8-3.8,9-5.3C545.5,411.1,546.7,412.7,549.3,414.8z"/>
	<path class="st0" d="M604.8,422.6c3.5,0,7,0,10.4,0c4,0,8,0.7,11.9,0c2.7-0.5,5.1-2.8,7.7-4.3c-2.3-1.4-4.6-2.8-8.1-4.8
		c1.5-0.7,3.8-2.5,4.5-2.1c3,2.2,6,4.7,7.9,7.7c0.7,1.2-1,4.6-2.4,6.3C630,433.9,612,433.6,604.8,422.6z"/>
	<path class="st0" d="M637,396.4c1.1,0,2.2-0.3,3.2,0c2.7,0.8,5.4,1.9,8.1,2.9c-2.5,1.7-4.8,4.5-7.5,5c-8.6,1.6-17.3,2.6-26,3.4
		c-2.3,0.2-4.7-1.4-7-2.1c1.6-1.8,2.9-4.8,4.8-5.3c8-1.9,16.2-3.1,24.3-4.6C637,395.9,637,396.2,637,396.4z"/>
	<path class="st0" d="M537.5,395.8c7.6,1.4,15.2,2.4,22.6,4.3c2.1,0.5,3.5,3.7,5.2,5.7c-2.3,0.7-4.8,2-7,1.8
		c-8.4-0.7-16.8-1.7-25.1-3.3c-2.9-0.5-5.4-2.9-8-4.5c2.8-1.2,5.5-2.5,8.3-3.5c1.2-0.4,2.6-0.1,4-0.1
		C537.5,396.2,537.5,396,537.5,395.8z"/>
	<path class="st0" d="M603.8,535.8c-10.8,8.1-20.7,8.4-30.9,3.3c-1.4-0.7-2.5-1.9-3.7-2.9c1.2-1.1,2.4-2.3,3.7-3.2
		c8.3-5.2,17.3-0.9,26-1.4C600.2,531.5,602,534.2,603.8,535.8z"/>
	<path class="st0" d="M323.9,389.7c8.7-4.9,47-4.8,53,1.9c-18.6,0.2-35.7,0.5-52.8,0.7C324,391.5,323.9,390.6,323.9,389.7z"/>
	<path class="st0" d="M798.8,396.6c5-6.4,42.7-6,52.5,0.2C834.3,399.2,817.3,396.8,798.8,396.6z"/>
	<path class="st0" d="M503.5,404.3c2.5-5.8,3.1-10.7,5.8-12.4c5.1-3.3,10.4-0.3,11.9,5c0.9,3.2-1.1,10-3,10.5
		C514.5,408.4,510,406,503.5,404.3z"/>
	<path class="st0" d="M671.5,406c-6.5,1.6-11,3.9-14.8,3.1c-1.8-0.4-3.8-7.4-2.9-10.5c1.6-5.3,6.8-8.3,11.9-4.9
		C668.3,395.5,669,400.3,671.5,406z"/>
	<path class="st0" d="M527.7,640.1c-4-4.9-8.1-7.6-8.3-10.7c-0.5-6.1,4.8-9.2,10-8.4c3.2,0.5,8.4,5.6,8,7.4
		C536.2,632.2,532.2,635,527.7,640.1z"/>
	<path class="st0" d="M645.2,640.1c-4.4-5-8.4-7.9-9.6-11.6c-0.5-1.6,4.8-6.7,8-7.3c5.3-0.9,10.5,2.2,9.9,8.3
		C653.2,632.6,649.2,635.3,645.2,640.1z"/>
	<path class="st0" d="M287,368.7c-2.7-2.3-6.5-4.1-7.8-7c-0.8-1.9,1.9-5.4,3.1-8.2c2.8,1.7,6.7,2.8,8.2,5.2c1.3,2-0.2,5.7-0.4,8.7
		C289,367.8,288,368.2,287,368.7z"/>
	<path class="st0" d="M262,383.6c-4.6-1.9-8.5-3.4-12.3-5c1.2-1.8,2.5-5.1,3.4-5c4.4,0.6,8.7,2.2,13,3.4
		C265,378.8,264,380.6,262,383.6z"/>
	<path class="st0" d="M252.1,384.8c4.4,1.7,7.7,3,11,4.3c-1.5,1.9-2.8,5.2-4.4,5.3c-3.4,0.1-6.9-1.4-10.4-2.2
		C249.5,390.2,250.5,388.2,252.1,384.8z"/>
	<path class="st0" d="M884.3,364.5c4.1-1.2,6.8-1.9,9.4-2.7c0.6,2.4,2.6,5.9,1.7,7c-1.8,2.2-5.2,3.1-8,4.5
		C886.5,370.9,885.8,368.5,884.3,364.5z"/>
	<path class="st0" d="M269.9,422c-3.5-1.5-5.6-2.4-7.7-3.4c1.4-2.4,2.3-5.8,4.4-7c1.6-0.9,4.8,0.9,7.3,1.5
		C272.8,415.7,271.5,418.3,269.9,422z"/>
	<path class="st0" d="M248.1,420.2c3.5,1.2,5.8,2,8,2.7c-1.6,2.6-2.8,5.8-5,7.7c-0.8,0.7-4.1-1.5-6.3-2.4
		C245.9,425.9,246.8,423.5,248.1,420.2z"/>
	<path class="st0" d="M244.5,417.2c-3.4-2-5.6-3.2-7.7-4.4c1.3-1.9,2.3-5.2,3.9-5.5c2.5-0.5,5.5,1,8.2,1.7
		C247.8,411.2,246.5,413.5,244.5,417.2z"/>
	<path class="st0" d="M263,409.9c-3.8-1.6-6.1-2.6-8.5-3.6c1.4-2.1,2.4-5.4,4.3-6c2.2-0.7,5.2,0.8,7.8,1.4
		C265.5,403.9,264.5,406.2,263,409.9z"/>
	<path class="st0" d="M246.4,374.3c-2.2,3.2-3.2,6.2-4.6,6.4c-2.5,0.3-5.2-1.1-7.8-1.8c1-2.1,1.6-5.5,3.1-6
		C239.2,372.2,242.1,373.5,246.4,374.3z"/>
	<path class="st0" d="M232.5,395.5c1.3-1.8,2.4-4.8,4-5.1c2.3-0.5,5,1,7.5,1.6c-0.7,2-1,5.2-2.3,5.7c-2.5,0.9-5.5,0.2-8.3,0.1
		C233.2,397,233,396.2,232.5,395.5z"/>
	<path class="st0" d="M909.3,382.8c5.4,0,9.5-0.3,13.5,0.1c0.6,0.1,1,2.9,1.4,4.4c-4.1,0.3-8.2,0.8-12.3,0.7
		C911.3,388,910.8,385.6,909.3,382.8z"/>
	<path class="st0" d="M913.2,397.3c4,0,8,0,12,0c-0.2,1.4-0.4,4.1-0.6,4c-4-0.2-7.9-0.6-11.8-1C912.8,399.3,913,398.3,913.2,397.3z"
		/>
	<path class="st0" d="M902,419.3c2,0.3,4.5,0,6,1c1.5,1.1,2,3.6,2.9,5.4c-1.8,0.3-4.1,1.4-5.4,0.7c-1.9-1.1-3.2-3.4-4.7-5.1
		C901.3,420.7,901.8,420,902,419.3z"/>
	<path class="st0" d="M273.9,346.5c1.1-1.5,2-4.2,3.2-4.3c1.9-0.1,5,0.9,5.6,2.4c0.6,1.4-0.7,4.8-2.2,5.5c-1.8,0.9-4.5,0-6.9-0.1
		C273.6,348.8,273.8,347.7,273.9,346.5z"/>
	<path class="st0" d="M919.5,430.1c2,0.4,4.4,0.2,6,1.2c1.4,0.9,2,3.1,3,4.8c-2,0.3-4.4,1.3-6.1,0.6c-1.7-0.7-2.7-3.1-4-4.7
		C918.7,431.4,919,430.8,919.5,430.1z"/>
	<path class="st0" d="M916.5,407.4c1.3,2.6,2.1,4.2,3,5.8c-2.3,0.5-4.7,1.6-6.8,1.2c-1.4-0.3-2.3-2.8-3.5-4.4
		C911.3,409.3,913.5,408.5,916.5,407.4z"/>
</g>
<g id="skeleton_1_">
	<polygon class="st1" points="512.8,399.5 527.1,617.3 643.5,616.5 661.7,401.5 	"/>
	<polyline class="st1" points="511.8,399.5 407.1,398.5 243.8,395.8 	"/>
	<polyline class="st1" points="663.2,401.1 766.4,402.1 926.7,402.5 	"/>
	<polyline class="st1" points="527.1,617.3 520.5,776.5 516.5,962.5 	"/>
	<polyline class="st1" points="643.5,616.5 652.5,775.5 658.5,958.5 	"/>
	<polyline class="st1" points="584.5,226 564.7,228.5 542.2,238 533.6,252.1 531.1,261.4 530.3,273.1 530.3,282.6 540.1,321.3 
		546.9,332.3 558.5,344.8 568.5,351.5 583.5,354.7 598.3,351.9 608.3,345.2 619.9,332.6 626.7,321.6 637.5,277 637.5,267.4 
		636.7,255.7 634.2,246.5 623,236 604.4,228.5 584.5,226 	"/>
	<polyline class="st1" points="541.5,268.9 545.5,265.2 551.7,264.2 559,264.2 568.8,268.2 	"/>
	<polygon class="st1" points="545.7,283.1 550.9,279.4 557.2,279.4 562.4,283.6 557.2,284.6 550.9,285.4 	"/>
	<polyline class="st1" points="573,307.2 578.2,307.2 583.7,308 583.7,302.7 583.7,295.6 583.7,290.1 583.7,284.3 	"/>
	<polyline class="st1" points="624,269.5 620,266.6 613.7,265.1 606.4,265.5 596.4,268.7 	"/>
	<polygon class="st1" points="622.1,284.1 616.8,280.4 610.5,280.4 605.4,284.6 610.5,285.6 616.8,286.4 	"/>
	<polyline class="st1" points="594.1,307.2 589.1,307.2 583.7,308 	"/>
	<polygon class="st1" points="566,328.3 572.9,324.9 579.4,323.8 583.5,324.7 587.7,323.8 594.1,324.9 601,328.3 594.6,334.6 
		587.5,337.4 583.5,337.9 579.4,337.4 572.4,334.6 	"/>
	<polyline class="st1" points="566,328.3 569.6,328.6 579.6,327.8 583.5,328.3 587.5,327.8 597.4,328.6 601,328.3 	"/>
	<polyline class="st1" points="566,328.3 569.6,328.6 579.6,330.7 583.5,331.5 587.5,330.7 597.4,328.6 601,328.3 	"/>
	<circle id="rightShoulder" cx="512.9" cy="399.2" r="8.2"/>
	<circle id="rightElbow" cx="407.4" cy="398.3" r="8.2"/>
	<circle id="rightWrist" cx="244" cy="395.7" r="8.2"/>
	<circle id="rightHip" cx="527.2" cy="617" r="8.2"/>
	<circle id="rightKnee" cx="520.6" cy="776.2" r="8.2"/>
	<circle id="rightAnkle" cx="516.6" cy="962.2" r="8.2"/>
	<circle id="leftElbow" cx="766.2" cy="401.9" r="8.2"/>
	<circle id="leftWrist" cx="926.6" cy="402.2" r="8.2"/>
	<circle id="leftHip" cx="643.6" cy="616.2" r="8.2"/>
	<circle id="leftKnee" cx="652.6" cy="775.2" r="8.2"/>
	<circle id="leftAnkle" cx="658.6" cy="958.2" r="8.2"/>
	<circle id="rightEye0" cx="545.7" cy="283.1" r="0.8"/>
	<circle id="rightBrow1" cx="545.5" cy="265.2" r="0.8"/>
	<circle id="rightBrow4" cx="568.8" cy="268.2" r="0.8"/>
	<circle id="nose1" cx="583.7" cy="290.1" r="0.8"/>
	<circle id="rightBrow3" cx="559" cy="264.2" r="0.8"/>
	<circle id="rightEye1" cx="550.9" cy="279.4" r="0.8"/>
	<circle id="rightBrow0" cx="541.5" cy="268.9" r="0.8"/>
	<circle id="rightBrow2" cx="551.7" cy="264.2" r="0.8"/>
	<circle id="rightEye5" cx="550.9" cy="285.4" r="0.8"/>
	<circle id="rightEye2" cx="557.2" cy="279.4" r="0.8"/>
	<circle id="rightEye3" cx="562.4" cy="283.6" r="0.8"/>
	<circle id="nose0" cx="583.7" cy="284.3" r="0.8"/>
	<circle id="nose3" cx="583.7" cy="302.7" r="0.8"/>
	<circle id="rightNose0" cx="573" cy="307.2" r="0.8"/>
	<circle id="rightMouthCorner" cx="566" cy="328.3" r="0.8"/>
	<circle id="rightNose1" cx="578.2" cy="307.2" r="0.8"/>
	<circle id="rightUpperLipTop0" cx="572.9" cy="324.9" r="0.8"/>
	<circle id="nose2" cx="583.7" cy="295.6" r="0.8"/>
	<circle id="nose4" cx="583.7" cy="308" r="0.8"/>
	<circle id="upperLipTopMid" cx="583.5" cy="324.7" r="0.8"/>
	<circle id="rightUpperLipTop1" cx="579.4" cy="323.8" r="0.8"/>
	<path id="rightMiddleLip" d="M569.6,327.8c0.4,0,0.8,0.4,0.8,0.8s-0.4,0.8-0.8,0.8s-0.8-0.4-0.8-0.8
		C568.8,328.2,569.2,327.8,569.6,327.8z"/>
	<circle id="lowerLipBottomMid" cx="583.5" cy="337.9" r="0.8"/>
	<circle id="upperLipBottomMid" cx="583.5" cy="328.3" r="0.8"/>
	<circle id="lowerLipTopMid" cx="583.5" cy="331.4" r="0.8"/>
	<circle id="rightUpperLipBottom1" cx="579.6" cy="327.8" r="0.8"/>
	<circle id="rightLowerLipTop0" cx="579.6" cy="330.7" r="0.8"/>
	<circle id="rightLowerLipBottom1" cx="579.4" cy="337.4" r="0.8"/>
	<circle id="rightLowerLipBottom0" cx="572.4" cy="334.6" r="0.8"/>
	<circle id="rightEye4" cx="557.2" cy="284.6" r="0.8"/>
	<circle id="jawMid" cx="583.5" cy="354.7" r="0.8"/>
	<circle id="rightJaw7" cx="568.5" cy="351.5" r="0.8"/>
	<circle id="rightJaw6" cx="558.5" cy="344.8" r="0.8"/>
	<circle id="rightJaw5" cx="546.9" cy="332.3" r="0.8"/>
	<circle id="rightJaw4" cx="540.1" cy="321.3" r="0.8"/>
	<circle id="rightJaw3" cx="530.3" cy="282.6" r="0.8"/>
	<circle id="rightJaw2" cx="530.3" cy="273.1" r="0.8"/>
	<circle id="rightJaw1" cx="531.1" cy="261.4" r="0.8"/>
	<circle id="rightJaw0" cx="533.6" cy="252.1" r="0.8"/>
	<circle id="topMid" cx="584.7" cy="226" r="0.8"/>
	<circle id="leftTop0" cx="604.4" cy="228.5" r="0.8"/>
	<circle id="leftTop1" cx="623" cy="236" r="0.8"/>
	<circle id="leftEye0" cx="622.3" cy="284.1" r="0.8"/>
	<circle id="leftBrow1" cx="620.2" cy="266.6" r="0.8"/>
	<circle id="leftBrow4" cx="596.6" cy="268.7" r="0.8"/>
	<circle id="leftBrow3" cx="606.6" cy="265.5" r="0.8"/>
	<circle id="leftEye1" cx="617.1" cy="280.4" r="0.8"/>
	<circle id="leftBrow0" cx="624.2" cy="269.5" r="0.8"/>
	<circle id="leftBrow2" cx="613.9" cy="265.1" r="0.8"/>
	<circle id="leftEye5" cx="617.1" cy="286.4" r="0.8"/>
	<circle id="leftEye2" cx="610.8" cy="280.4" r="0.8"/>
	<circle id="leftEye3" cx="605.6" cy="284.6" r="0.8"/>
	<circle id="leftNose0" cx="594.1" cy="307.2" r="0.8"/>
	<circle id="leftMouthCorner" cx="601" cy="328.3" r="0.8"/>
	<circle id="leftNose1" cx="589.3" cy="307.2" r="0.8"/>
	<circle id="leftUpperLipTop0" cx="594.1" cy="324.9" r="0.8"/>
	<circle id="leftUpperLipTop1" cx="587.7" cy="323.8" r="0.8"/>
	<path id="leftMiddleLip" d="M597.4,327.8c0.4,0,0.8,0.4,0.8,0.8s-0.4,0.8-0.8,0.8s-0.8-0.4-0.8-0.8
		C596.6,328.2,597,327.8,597.4,327.8z"/>
	<circle id="leftUpperLipBottom1" cx="587.5" cy="327.8" r="0.8"/>
	<circle id="leftLowerLipTop0" cx="587.5" cy="330.7" r="0.8"/>
	<circle id="leftLowerLipBottom1" cx="587.7" cy="337.4" r="0.8"/>
	<circle id="leftLowerLipBottom0" cx="594.6" cy="334.6" r="0.8"/>
	<circle id="leftEye4" cx="610.8" cy="285.6" r="0.8"/>
	<circle id="leftJaw7" cx="598.3" cy="351.9" r="0.8"/>
	<circle id="leftJaw6" cx="608.3" cy="345.2" r="0.8"/>
	<circle id="leftJaw5" cx="619.9" cy="332.6" r="0.8"/>
	<circle id="leftJaw4" cx="626.7" cy="321.6" r="0.8"/>
	<circle id="leftJaw3" cx="637.5" cy="277" r="0.8"/>
	<circle id="leftJaw2" cx="637.5" cy="267.4" r="0.8"/>
	<circle id="leftJaw1" cx="636.7" cy="255.7" r="0.8"/>
	<circle id="leftJaw0" cx="634.2" cy="246.5" r="0.8"/>
	<circle id="rightTop0" cx="564.8" cy="228.5" r="0.8"/>
	<circle id="rightTop1" cx="542.2" cy="238" r="0.8"/>
	<circle id="leftShoulder" cx="661.8" cy="401.2" r="8.2"/>
</g>
</svg>
