<?xml version="1.0" encoding="utf-8"?>
<!-- Generator: Adobe Illustrator 25.3.1, SVG Export Plug-In . SVG Version: 6.00 Build 0)  -->
<svg version="1.1" id="Layer_1" xmlns="http://www.w3.org/2000/svg" xmlns:xlink="http://www.w3.org/1999/xlink" x="0px" y="0px"
	 viewBox="0 0 1200 1200" style="enable-background:new 0 0 1200 1200;" xml:space="preserve">
<style type="text/css">
	.st0{fill:#FFFFFF;}
</style>
<g id="illustration">
	<path d="M573.1,929.2c-1.4-2.7-2.8-5.5-4.3-8.2c3.5-1.5,6.9-4.1,10.4-4.2c2.3-0.1,4.8,3.3,7.2,5.2c-2.3,2.4-4.6,4.9-6.9,7.3
		C577.4,929.2,575.2,929.2,573.1,929.2z"/>
	<path d="M675.8,929.2c-2.3-2.2-5.1-4.2-6.6-6.8c-0.4-0.7,3-5,4.9-5.2c3.7-0.3,8.4,0.1,11,2.2c5.2,4.2,0,7-2.9,9.8
		C680.1,929.2,678,929.2,675.8,929.2z"/>
	<path d="M557,929.2c-0.5-3.2-0.9-6.4-1.4-9.6c2.1,0.1,4.7-0.6,6.2,0.4c4.1,2.7,2.8,6.1-0.1,9.2C560.2,929.2,558.6,929.2,557,929.2z
		"/>
	<path d="M693.5,929.2c-0.9-1.6-2.8-3.6-2.4-4.7c0.9-2.3,2.9-4.3,4.8-5.8c0.7-0.5,4,0.9,3.9,1.3c-0.2,3.1-1,6.2-1.6,9.2
		C696.7,929.2,695.1,929.2,693.5,929.2z"/>
	<path d="M624.7,167.3c4.8,0.4,9.6,0.4,14.3,1.3c40.8,7.9,58.7,38.7,46,78.9c-2.9,9.1-5.3,18.3-8.3,27.4c-2.5,7.6-7.7,12-16,12.3
		c-7.5,0.2-15.8-1.5-19.9,7.8c-0.2,0.5-1.4,1-2.1,1c-9.4,0-18.7,0-28.1-0.1c-0.9,0-2.3-0.7-2.6-1.5c-3.3-7.3-9.7-7.2-16.2-7.1
		c-12.1,0.1-17.5-4.7-19.4-16.5c-0.7-4.4-2-8.8-3.8-12.9c-6.4-14.8-9.3-30.2-6.4-46.2c4.6-25.1,26.5-42.2,55.2-43.8
		c2.4-0.1,4.8,0,7.2,0C624.7,167.6,624.7,167.5,624.7,167.3z M608.5,256c0.1-8.8-3.1-12.2-11.7-12.3c-9.9-0.2-16.2,7.4-16.3,19.5
		c-0.1,6.4,5,10.3,13.3,10.3C603.7,273.6,608.3,268.1,608.5,256z M641.2,256c0.1,12,4.7,17.5,14.8,17.5c8.2,0.1,13.4-3.9,13.5-10.3
		c0.1-11.8-6.5-19.7-16.3-19.5C644.5,243.8,641.1,247.3,641.2,256z M624.5,288.6c0.4,0.6,0.8,1.1,1.2,1.7c3.8-2.6,10.7-5.1,10.8-7.9
		c0.3-7.1-6.7-6.6-11.9-7c-1.6-0.1-3.5-0.2-4.7,0.6c-2.6,1.8-4.7,4.2-7.1,6.4c2.3,1.9,4.5,4,7,5.6
		C621.1,288.7,623,288.4,624.5,288.6z"/>
	<path d="M590.2,538.8c6.1,0.1,12.5,3.8,17.6,10.4c8.3,10.8,29.1,10.7,37.9,0.1c2.3-2.8,5.2-5.5,8.3-7.3c9.3-5.5,19.9-3.6,25.1,3.9
		c5.4,7.7,3.4,20.7-5.3,26.4c-7.1,4.7-11.4,9.7-13.2,18.4c-2.3,10.9-15.2,14.6-26.2,7.9c-6.3-3.8-10.6-4.4-17.2-0.2
		c-11.5,7.3-24.7-0.2-27.5-13.7c-0.7-3.4-5-6.9-8.5-8.8c-9.7-5.4-13.7-13.3-11-23.9C572.3,543.5,578.7,538.8,590.2,538.8z
		 M628.9,577.1c0.3,0.6,0.6,1.2,1,1.8c2.1-1.7,5.2-3.1,6.1-5.3c1.1-2.5,1.2-6.3,0.1-8.7c-0.5-1.2-4.9-0.6-7.6-0.8
		c-2.1-0.2-4.1-0.1-6.2-0.5c-6.3-1.2-8.9,1.7-7.3,7.9C617,579.5,622.7,578.8,628.9,577.1z M637.7,585.8c5.5-0.2,6.3,11.3,13.4,4.9
		c1.8-1.6,2-8.2,0.4-9.7C646.2,576.1,642,580.9,637.7,585.8z M615.6,586.1c-5.3-5.2-9.3-9.8-14.7-5.2c-1.7,1.4-1.7,7.9,0,9.5
		C607.5,596.8,609.1,586.5,615.6,586.1z"/>
	<path d="M558,673.3c0-12.8-0.1-25.6,0.1-38.5c0.1-5-0.4-9.1-5.4-12.3c-2.2-1.4-2.1-6.2-3.1-9.5c2.7-0.7,5.4-1.4,8.1-2.2
		c3.1-0.9,6.2-2.2,9.4-2.8c2.8-0.5,7.5-1.2,8.3,0.2c1.4,2.2,1.1,6.1,0.4,9c-1.4,5.2-5.1,10.1-5.2,15.3c-0.7,27-0.8,53.9-0.7,80.9
		c0,3,3.3,5.8,4.7,8.9c1.4,3,3.9,6.9,3,9.2c-0.8,2.1-5.6,3.1-8.8,3.6c-3.9,0.6-8,0.6-11.8,0c-2.8-0.5-5.4-2.4-8.1-3.7
		c1.2-2.4,2.4-4.9,3.5-7.3c1.2-2.8,3.3-5.6,3.4-8.4c0.3-14.2,0.2-28.3,0.2-42.5C556.5,673.3,557.3,673.3,558,673.3z"/>
	<path d="M697.6,734.8c-3.9,0.3-7.9,1.1-11.7,0.6c-2.9-0.4-6.8-1.8-8.1-3.9c-1-1.8,0.3-7.2,2-8c6.7-3.1,6.4-8.5,6.4-14.1
		c-0.3-25.9-0.4-51.8-1.2-77.6c-0.1-4.6-3.5-9.1-4.8-13.8c-0.8-2.9-0.7-6.2-1.1-9.3c3.3-0.1,6.7-0.4,9.9-0.1
		c3.2,0.3,6.3,1.2,9.5,2.1c2.5,0.7,7,1.7,6.9,2.5c-0.1,3.3-1.3,6.6-2.6,9.8c-1.5,3.6-5.2,7-5.2,10.5c0.2,27.2,1.1,54.5,2,81.7
		c0.1,2.9,1.7,5.9,2.9,8.7c1.1,2.7,4.4,6.3,3.7,7.6c-1.4,2.4-5.2,3.5-8,5.1C698,735.8,697.8,735.3,697.6,734.8z"/>
	<path d="M636.9,400.2c0.7,6.6,2.6,13.3,1.8,19.7c-1.1,8.8-0.2,18.3-2.2,26.3c-2.5,9.9,0.5,18.6-0.2,27.8c-0.2,2.9-0.9,7.2-2.8,8.1
		c-2.8,1.4-7.3,1.4-10.2,0.1c-1.9-0.9-3.1-5.2-3-8c0.3-6,1.7-12,2.3-18c0.2-1.7-1-3.5-1.1-5.3c-1.1-11.6-2.2-23.2-3.1-34.8
		c-0.3-4.3-0.7-8.8,0.1-13c1.2-5.6,1.9-13,5.7-16C631.1,381.5,639.1,389.1,636.9,400.2z"/>
	<path d="M559.7,882.8c-0.3-3.4-0.9-6.9-1-10.3c-0.5-33.9-0.9-67.9-1.3-101.8c-0.1-4.7,0.1-9-6.8-9.4c-1.7-0.1-5-5.4-4.4-7.5
		c0.7-2.9,4.1-5.8,7-7.1c3.4-1.5,7.5-1.8,11.3-1.5c3.3,0.2,8.2,1,9.4,3.3c1.4,2.4-0.3,6.8-1.3,10.2c-1.1,3.8-4.1,7.3-4.2,11
		c-0.9,32.9-1.1,65.7-1.9,98.6c-0.1,5-1.7,9.9-2.6,14.9C562.5,882.9,561.1,882.8,559.7,882.8z"/>
	<path d="M697.3,762.9c-0.4,40.3-0.8,80-1.1,119.8c-1.3,0.2-2.5,0.4-3.8,0.5c-1.1-3.9-2.9-7.8-3.3-11.9c-0.9-10.9-1.4-21.9-1.5-32.9
		c-0.3-22.2-0.1-44.4-0.2-66.6c0-5.2,0.5-10.3-4.9-14.2c-1.8-1.3-2.2-7-0.9-9.3c1.3-2.2,5.6-3.2,8.7-3.4c4-0.2,8.4,0.2,12,1.7
		c2.9,1.2,6.5,4.3,6.9,7.1c0.4,2.4-3,5.6-5.2,8C703.2,762.6,701,762.3,697.3,762.9z"/>
	<path d="M721.8,362.4c0.2-2.3,0.1-4.7,0.7-6.9c0.5-1.8,1.5-4.5,2.8-4.9c1.9-0.5,5.5,0,6.2,1.3c3.1,5.3,7.8,4.8,12.6,4.7
		c12.8-0.3,25.6-0.3,38.5-0.9c4.1-0.2,8-2.1,12.1-2.7c2.5-0.4,5.8-0.8,7.4,0.5c1.5,1.2,1.5,4.6,1.7,7.1c0.2,2.3,0.3,4.7-0.2,7
		s-1.4,5.8-2.9,6.3c-2.2,0.7-6.7-0.1-7.4-1.6c-2.7-5.5-7-5.7-12-5.6c-14.2,0.4-28.3,0.4-42.5,0.9c-3.3,0.1-6.5,1.9-9.8,2.5
		c-2.6,0.4-6,1.1-7.8-0.2c-1.5-1-1.2-4.7-1.7-7.2C720.2,362.5,721,362.4,721.8,362.4z"/>
	<path d="M453.8,367.8c0-5.6-0.7-10.9,0.3-15.9c0.3-1.5,5-3.5,7.5-3.2c7.5,0.8,14.8,3.2,22.3,4c10.1,1,20.3,1.5,30.4,1.2
		c3.9-0.1,7.8-2.9,11.8-4.3c2.1-0.7,4.5-1.8,6.3-1.3c1.4,0.4,2.4,3,3,4.8c0.9,2.6,1.6,5.4,1.9,8.2c0.2,2.2,0.3,5.2-1,6.4
		c-1.3,1.3-4.4,1.4-6.5,1c-6.4-1.2-12.6-3.5-19.1-4.1c-12-1-24-1.5-36-1.4c-3.3,0-7.2,2.3-9.8,4.6
		C460.8,371.5,455.3,371.8,453.8,367.8z"/>
	<path d="M340,366.3c-8.9,3.9-18.1,0.9-21.8-7.2c-3.9-8.5-1.2-18.7,5.6-21.7c8-3.5,19.9,1.9,24,10.8
		C351.2,355.6,348.1,362.8,340,366.3z"/>
	<path d="M442.5,371.3c-2.1-0.6-4.5-1.3-6.9-2.1c-4-1.4-7.9-3.9-11.9-4c-18.4-0.2-36.8,0.2-55.2,0.4c-1.6,0-3.3,0.4-4.8-0.1
		c-2.2-0.8-4.1-2.2-6.2-3.3c2.1-1.1,4.2-2.9,6.3-3.1c18.1-0.9,36.2-1.4,54.3-2.3c6.3-0.3,13.5,1.2,17.3-6.9c0.4-1,8-0.1,8.1,0.5
		c0.9,6.1,1,12.4,1.2,18.6C444.7,369.6,443.7,370.1,442.5,371.3z"/>
	<path d="M813.9,353.3c2.9,0.6,8.1,0.2,9,2c2.6,5.1,6.7,5.7,11.2,6c19.7,1.3,39.4,2.4,59,3.9c2.3,0.2,4.5,2.4,6.7,3.6
		c-2.2,0.9-4.4,2.7-6.6,2.7c-20.3-0.4-40.5-1.4-60.8-1.7c-3.5,0-7,2.4-10.5,3.4c-2.4,0.7-5.5,2.1-7.3,1.3c-1.7-0.8-3-4.2-3-6.5
		C811.7,364,812.9,359.8,813.9,353.3z"/>
	<path d="M650.1,310.1c0.4,10.4-3.7,16-11.5,16.8c-9.6,0.9-19.6,1.2-29.1-0.4c-8.4-1.4-12.3-10.8-9.8-19c0.5-1.7,2.6-2.9,3.9-4.3
		c1.5,1.5,4.4,3.1,4.3,4.5c-0.4,6.9,3.7,8.1,9,8.3c4.5,0.1,9.1,0.3,13.6,0c5.6-0.3,11.9-0.1,10.4-9c-0.2-1.1,2.1-3.6,3.2-3.6
		c1.8,0,4.1,1.2,5.1,2.6C650.3,307.6,650.1,310.1,650.1,310.1z"/>
	<path d="M918.5,372.5c-7.4-3.2-11-9.9-8.7-15.8c3.2-8,15.2-13.2,22.9-9.9c6.3,2.8,9,11.9,5.7,19.5
		C935.3,373.4,926.7,376,918.5,372.5z"/>
	<path d="M702.9,887.5c0-35.1,0-70.2,0-105.2c0.7-0.2,1.5-0.4,2.2-0.6c0.9,1.8,2.6,3.6,2.7,5.5c0.7,28.8,1.4,57.7,1.7,86.5
		c0,4.9-2.2,9.8-3.4,14.7C705,888.1,703.9,887.8,702.9,887.5z"/>
	<path d="M552.4,782.5c0,35,0,70.1,0,105.1c-0.8,0.2-1.7,0.3-2.5,0.5c-1.1-3-3-6-3.1-9.1c-0.5-17.9-0.9-35.8-0.8-53.6
		c0.1-11.8,0.8-23.5,1.5-35.3c0.2-2.8,1.3-5.5,1.9-8.3C550.5,782,551.4,782.2,552.4,782.5z"/>
	<path d="M644,453.2c22,10,41.8,17.2,60.6-1.8c3.9,6.8-0.5,11-3.7,14.5c-11,11.8-24.6,9.6-38.1,5.5C654.6,468.8,647.9,464,644,453.2
		z"/>
	<path d="M551.2,451.1c19.1,19.1,38.8,12.3,59.8,2.4c-1.4,9.4-7.2,13.4-13.7,16.1c-13.2,5.5-26.7,8.2-39.5-1.1
		C551.7,464,549.5,458.3,551.2,451.1z"/>
	<path d="M582.1,450.9c-9.7-2.2-17-3.3-24-5.7c-3.2-1.1-5.9-4.3-8.1-7.2c-1-1.2-0.1-3.9-0.1-5.9c1.9,0.2,4.1-0.3,5.6,0.6
		c15.7,9.3,31.9,8.3,48.6,3.2c2.1-0.6,4.6,0.2,7,0.3c-1.3,2.1-2,5.5-3.9,6.2C598.4,445.8,589.4,448.4,582.1,450.9z"/>
	<path d="M673.1,450.6c-6.7-2.3-15.6-5-24.3-8.4c-1.7-0.7-2.4-4.1-3.6-6.2c2.4,0,4.9-0.7,7.1,0c16.6,5.1,32.9,6,48.5-3.3
		c1.4-0.8,3.3-0.7,5-0.9c0.2,2,1.4,4.9,0.5,5.8c-3.2,3.3-6.6,7.1-10.8,8.7C689.4,448.4,682.6,448.8,673.1,450.6z"/>
	<path d="M645,474.5c16.9,14.2,34.4,20.5,55.2,2.8c-0.8,5.2-0.3,8.5-1.7,10.1c-3,3.5-6.6,7.3-10.7,9.1c-11.7,5.1-32.3-0.6-40.4-10.6
		c-2-2.5-2.9-6-4.2-9.1C643.8,476.1,644.4,475.3,645,474.5z"/>
	<path d="M556,477.3c20.7,18,38.1,11.2,55.2-2.8c0.6,0.9,1.1,1.8,1.7,2.7c-1.6,3.3-2.5,7.4-5.1,9.7c-10.5,9.4-23.1,14-37,10.3
		c-5.1-1.3-9.6-6.2-13.6-10.2C555.9,485.7,556.5,482.3,556,477.3z"/>
	<path d="M699,913.2c-2.3,0.2-6.3,1.1-10.2,0.8c-2.8-0.2-6.9-1.5-7.8-3.5c-1-2.1,0.3-6.4,2-8.4c7-8.2,26-7.2,32.4,1.3
		c2.9,3.8,1.3,8.8-3.7,9.8C708.3,913.8,704.5,913.2,699,913.2z"/>
	<path d="M556.6,913.5c-4,0-8.1,0.5-12-0.1c-5.8-0.9-7.9-6.6-4.2-10.7c6.1-6.8,22.8-8.7,29.6-2.6c2.6,2.3,3.3,6.6,4.9,10
		c-3.4,1.2-6.8,2.9-10.3,3.6c-2.5,0.5-5.3-0.3-8-0.5V913.5z"/>
	<path d="M643.6,418.7c4.3-0.5,7-1.5,9.4-0.9c13.8,3.1,27.3,5,39.5-5.2c1.1-0.9,4.9-0.5,5.5,0.5c0.9,1.6,0.6,4.2,0.2,6.3
		c-0.2,1.1-1.6,2.1-2.6,2.9C683.8,432.7,655.5,431.7,643.6,418.7z"/>
	<path d="M583.1,431.3c-7.4-2.9-15.4-5.6-22.8-9.4c-1.9-1-1.9-5.6-2.8-8.6c2.8,0.2,6.4-0.5,8.4,0.9c10.1,7.4,21,6.9,32.2,4.5
		c2.4-0.5,4.7-1.5,7-1.3c1.8,0.1,3.4,1.6,5.2,2.5c-1,1.4-1.7,3.8-3,4.2C599.8,426.6,592.1,428.7,583.1,431.3z"/>
	<path d="M646.9,533.9c-2,0.3-4,0.6-6.6,1.1c2,6.7-1.9,9.6-7.4,9.2c-6.7-0.5-16.8,5.5-18.3-8c-0.1-1-4-1.5-7.2-4.4
		c2.2-1.2,4.6-3.6,6.5-3.3c9.4,1.7,18.5,2.4,27.9-0.1c1.7-0.5,4.1,1.7,6.2,2.6C647.7,532,647.3,532.9,646.9,533.9z"/>
	<path d="M630,379.9c-5.5,1.8-12.1,3-14.4-5.6c-0.8-3-0.4-6.9,1.1-9.5c0.7-1.3,5-0.8,7.7-0.9c2.6-0.1,5.3-0.1,7.9,0.1
		c2.9,0.2,7.7,0,8.2,1.2c1.1,3.1,1.2,7.4-0.2,10.3c-1.1,2.4-5,3.5-7.7,5C632.2,380.6,631.5,380.3,630,379.9z"/>
	<path d="M648.6,512.6c-8.5,6.7-13.8,14.2-23.4,10.9c-5.4-1.9-10.4-4.8-15.5-7.2c0.9-1.7,1.6-4.7,2.6-4.8c8.3-0.8,16.6-1.3,24.9-1.3
		C640.4,510,643.6,511.4,648.6,512.6z"/>
	<path d="M610.5,403.3c-9.5,9.7-32.8,10.4-41.7,0.8c-1.6-1.7-1.6-5-2.4-7.5c2.5,0.3,5.6-0.4,7.3,0.9c8.3,6.4,17.4,5.7,26.8,3.8
		c3.2-0.7,6.5-0.6,9.8-0.9C610.4,401.4,610.5,402.3,610.5,403.3z"/>
	<path d="M643.4,401c5,0,7.9-0.5,10.7,0.1c10.5,2.1,20.6,3.3,29.6-4.8c1.1-1,3.6-0.2,5.5-0.3c0,1.9,0.2,3.9-0.1,5.8
		c-0.1,0.9-1.1,1.8-1.9,2.5C678,413.6,654.9,412.9,643.4,401z"/>
	<path d="M590.6,375.8c-3.4,0.4-4.7,0.4-5.8,0.8c-1.5,0.6-2.8,1.5-4.2,2.4c1.1,1.3,2.2,3.7,3.4,3.8c6,0.5,12.1,0.3,18.1,0.7
		c2.9,0.2,5.6,1.5,8.4,2.3c-2.3,1.8-4.4,4.5-6.9,5.1c-8.7,2.2-17.7,3.4-24.5-4.3c-1.9-2.2-3.2-7.1-2-9.1c1.5-2.6,5.8-3.8,9-5.3
		C586.7,372.1,587.9,373.7,590.6,375.8z"/>
	<path d="M646.1,383.6c3.5,0,7,0,10.4,0c4,0,8,0.7,11.9,0c2.7-0.5,5.1-2.8,7.7-4.3c-2.3-1.4-4.6-2.8-8.1-4.8
		c1.5-0.7,3.8-2.5,4.5-2.1c3,2.2,6,4.7,7.9,7.7c0.7,1.2-1,4.6-2.4,6.3C671.3,394.9,653.3,394.6,646.1,383.6z"/>
	<path d="M678.3,357.4c1.1,0,2.2-0.3,3.2,0c2.7,0.8,5.4,1.9,8.1,2.9c-2.5,1.7-4.8,4.5-7.5,5c-8.6,1.6-17.3,2.6-26,3.4
		c-2.3,0.2-4.7-1.4-7-2.1c1.6-1.8,2.9-4.8,4.8-5.3c8-1.9,16.2-3.1,24.3-4.6C678.2,356.9,678.2,357.2,678.3,357.4z"/>
	<path d="M578.8,356.8c7.6,1.4,15.2,2.4,22.6,4.3c2.1,0.5,3.5,3.7,5.2,5.7c-2.3,0.7-4.8,2-7,1.8c-8.4-0.7-16.8-1.7-25.1-3.3
		c-2.9-0.5-5.4-2.9-8-4.5c2.8-1.2,5.5-2.5,8.3-3.5c1.2-0.4,2.6-0.1,4-0.1C578.8,357.2,578.8,357,578.8,356.8z"/>
	<path d="M645,496.8c-10.8,8.1-20.7,8.4-30.9,3.3c-1.4-0.7-2.5-1.9-3.7-2.9c1.2-1.1,2.4-2.3,3.7-3.2c8.3-5.2,17.3-0.9,26-1.4
		C641.5,492.5,643.2,495.2,645,496.8z"/>
	<path d="M365.1,350.7c8.7-4.9,47-4.8,53,1.9c-18.6,0.2-35.7,0.5-52.8,0.7C365.2,352.5,365.1,351.6,365.1,350.7z"/>
	<path d="M840.1,357.6c5-6.4,42.7-6,52.5,0.2C875.6,360.2,858.6,357.8,840.1,357.6z"/>
	<path d="M544.7,365.3c2.5-5.8,3.1-10.7,5.8-12.4c5.1-3.3,10.4-0.3,11.9,5c0.9,3.2-1.1,10-3,10.5C555.7,369.4,551.2,367,544.7,365.3
		z"/>
	<path d="M712.7,367c-6.5,1.6-11,3.9-14.8,3.1c-1.8-0.4-3.8-7.4-2.9-10.5c1.6-5.3,6.8-8.3,11.9-4.9
		C709.6,356.5,710.2,361.3,712.7,367z"/>
	<path d="M568.9,601.1c-4-4.9-8.1-7.6-8.3-10.7c-0.5-6.1,4.8-9.2,10-8.4c3.2,0.5,8.4,5.6,8,7.4C577.5,593.2,573.4,596,568.9,601.1z"
		/>
	<path d="M686.5,601.1c-4.4-5-8.4-7.9-9.6-11.6c-0.5-1.6,4.8-6.7,8-7.3c5.3-0.9,10.5,2.2,9.9,8.3
		C694.4,593.6,690.4,596.3,686.5,601.1z"/>
	<path d="M328.2,329.7c-2.7-2.3-6.5-4.1-7.8-7c-0.8-1.9,1.9-5.4,3.1-8.2c2.8,1.7,6.7,2.8,8.2,5.2c1.3,2-0.2,5.7-0.4,8.7
		C330.3,328.8,329.2,329.2,328.2,329.7z"/>
	<path d="M303.3,344.6c-4.6-1.9-8.5-3.4-12.3-5c1.2-1.8,2.5-5.1,3.4-5c4.4,0.6,8.7,2.2,13,3.4C306.3,339.8,305.2,341.6,303.3,344.6z
		"/>
	<path d="M293.4,345.8c4.4,1.7,7.7,3,11,4.3c-1.5,1.9-2.8,5.2-4.4,5.3c-3.4,0.1-6.9-1.4-10.4-2.2
		C290.7,351.2,291.7,349.2,293.4,345.8z"/>
	<path d="M925.6,325.5c4.1-1.2,6.8-1.9,9.4-2.7c0.6,2.4,2.6,5.9,1.7,7c-1.8,2.2-5.2,3.1-8,4.5C927.8,331.9,927,329.5,925.6,325.5z"
		/>
	<path d="M311.1,383c-3.5-1.5-5.6-2.4-7.7-3.4c1.4-2.4,2.3-5.8,4.4-7c1.6-0.9,4.8,0.9,7.3,1.5C314,376.7,312.8,379.3,311.1,383z"/>
	<path d="M289.4,381.2c3.5,1.2,5.8,2,8,2.7c-1.6,2.6-2.8,5.8-5,7.7c-0.8,0.7-4.1-1.5-6.3-2.4C287.1,386.9,288,384.5,289.4,381.2z"/>
	<path d="M285.8,378.2c-3.4-2-5.6-3.2-7.7-4.4c1.3-1.9,2.3-5.2,3.9-5.5c2.5-0.5,5.5,1,8.2,1.7C289,372.2,287.8,374.5,285.8,378.2z"
		/>
	<path d="M304.2,370.9c-3.8-1.6-6.1-2.6-8.5-3.6c1.4-2.1,2.4-5.4,4.3-6c2.2-0.7,5.2,0.8,7.8,1.4
		C306.8,364.9,305.8,367.2,304.2,370.9z"/>
	<path d="M287.6,335.3c-2.2,3.2-3.2,6.2-4.6,6.4c-2.5,0.3-5.2-1.1-7.8-1.8c1-2.1,1.6-5.5,3.1-6C280.5,333.2,283.4,334.5,287.6,335.3
		z"/>
	<path d="M273.8,356.5c1.3-1.8,2.4-4.8,4-5.1c2.3-0.5,5,1,7.5,1.6c-0.7,2-1,5.2-2.3,5.7c-2.5,0.9-5.5,0.2-8.3,0.1
		C274.5,358,274.2,357.2,273.8,356.5z"/>
	<path d="M950.6,343.8c5.4,0,9.5-0.3,13.5,0.1c0.6,0.1,1,2.9,1.4,4.4c-4.1,0.3-8.2,0.8-12.3,0.7C952.6,349,952,346.6,950.6,343.8z"
		/>
	<path d="M954.4,358.3c4,0,8,0,12,0c-0.2,1.4-0.4,4.1-0.6,4c-4-0.2-7.9-0.6-11.8-1C954.1,360.3,954.3,359.3,954.4,358.3z"/>
	<path d="M943.3,380.3c2,0.3,4.5,0,6,1c1.5,1.1,2,3.6,2.9,5.4c-1.8,0.3-4.1,1.4-5.4,0.7c-1.9-1.1-3.2-3.4-4.7-5.1
		C942.6,381.7,943,381,943.3,380.3z"/>
	<path d="M315.1,307.5c1.1-1.5,2-4.2,3.2-4.3c1.9-0.1,5,0.9,5.6,2.4c0.6,1.4-0.7,4.8-2.2,5.5c-1.8,0.9-4.5,0-6.9-0.1
		C314.9,309.8,315,308.7,315.1,307.5z"/>
	<path d="M960.7,391.1c2,0.4,4.4,0.2,6,1.2c1.4,0.9,2,3.1,3,4.8c-2,0.3-4.4,1.3-6.1,0.6c-1.7-0.7-2.7-3.1-4-4.7
		C959.9,392.4,960.3,391.8,960.7,391.1z"/>
	<path d="M957.8,368.4c1.3,2.6,2.1,4.2,3,5.8c-2.3,0.5-4.7,1.6-6.8,1.2c-1.4-0.3-2.3-2.8-3.5-4.4
		C952.6,370.3,954.8,369.5,957.8,368.4z"/>
	<path class="st0" d="M608.5,256c-0.2,12.1-4.8,17.5-14.7,17.5c-8.3,0-13.4-4-13.3-10.3c0.1-12.2,6.4-19.7,16.3-19.5
		C605.4,243.9,608.6,247.2,608.5,256z"/>
	<path class="st0" d="M641.2,256c-0.1-8.7,3.3-12.2,11.9-12.3c9.8-0.1,16.4,7.8,16.3,19.5c-0.1,6.4-5.2,10.3-13.5,10.3
		C645.9,273.5,641.3,268,641.2,256z"/>
	<path class="st0" d="M624.5,288.6c-1.6-0.2-3.5,0.2-4.7-0.6c-2.5-1.6-4.7-3.7-7-5.6c2.3-2.2,4.5-4.6,7.1-6.4
		c1.1-0.8,3.1-0.7,4.7-0.6c5.2,0.4,12.3-0.1,11.9,7c-0.1,2.8-7,5.2-10.8,7.9C625.3,289.7,624.9,289.1,624.5,288.6z"/>
	<path class="st0" d="M628.9,577.1c-6.2,1.7-11.8,2.4-13.9-5.6c-1.6-6.2,1-9,7.3-7.9c2,0.4,4.1,0.4,6.2,0.5c2.7,0.2,7.1-0.4,7.6,0.8
		c1.1,2.5,1,6.2-0.1,8.7c-1,2.2-4,3.6-6.1,5.3C629.5,578.3,629.2,577.7,628.9,577.1z"/>
	<path class="st0" d="M637.7,585.8c4.3-4.9,8.5-9.7,13.8-4.7c1.6,1.5,1.4,8.1-0.4,9.7C644,597.1,643.2,585.6,637.7,585.8z"/>
	<path class="st0" d="M615.6,586.1c-6.5,0.4-8.1,10.7-14.7,4.3c-1.7-1.6-1.6-8.1,0-9.5C606.3,576.3,610.3,580.9,615.6,586.1z"/>
</g>
<g id="skeleton">
	<polygon points="554.8,360.5 554.3,360.5 568.6,553.8 686,555 704.3,361 554.3,360 554.3,360.5 554.8,360.5 554.8,361 703.1,362 
		685,554 569.6,552.8 555.3,360.5 554.8,360.5 554.8,361 	"/>
	<polygon points="553.8,360 448.1,359 354.8,355.3 354.8,356.3 448.1,360 553.8,361 	"/>
	<polygon points="705.2,361.6 808.4,361.6 908.7,366 908.7,365 808.4,360.6 705.2,360.6 	"/>
	<polygon points="568.6,553.3 565,735.5 555,903.5 556,903.5 566,735.5 569.6,553.3 	"/>
	<polygon points="685,554.5 695,735.5 695,903.5 696,903.5 696,735.5 686,554.5 	"/>
	<polygon points="627.4,163.3 601.9,166.5 577.9,178.9 561.7,201.4 560.1,213.7 559.1,228.9 564.1,256.3 570.1,288.8 578.9,314.8 
		593.9,331.2 606.9,339.9 626.4,344.1 645.6,340.5 658.6,331.7 673.7,315.2 682.5,289.2 688.6,258.7 692.6,229.2 691.6,213.9 
		688.3,201.8 669.6,178.9 653.3,166.5 627.6,163.3 627.4,164.3 652.9,167.5 669,179.7 687.4,202.3 690.6,214.1 691.6,229.2 
		687.6,258.5 681.5,288.9 672.8,314.7 658,330.9 645.2,339.5 626.4,343.1 607.3,339 594.6,330.4 579.7,314.3 571,288.6 565.1,256.2 
		560.1,228.9 561.1,213.8 562.6,201.7 578.6,179.7 602.2,167.5 627.6,164.3 	"/>
	<polygon points="579.5,247.9 584.5,243.2 592.3,242 601.6,242 614.1,247.1 614.5,246.2 601.8,241 592.3,241 584.1,242.3 
		578.8,247.2 	"/>
	<polygon points="580.1,259.2 580.5,259.5 592.1,244.9 599.7,244.9 608,258.8 597.7,272.6 586.2,271.7 580.6,259 580.1,259.2 
		580.5,259.5 580.1,259.2 579.7,259.4 585.5,272.6 598.2,273.7 609.2,258.9 600.2,243.9 591.6,243.9 579.6,259.1 579.7,259.4 	"/>
	<polygon points="611.6,282.6 618.3,282.6 625.9,283.7 625.9,276.3 625,266.6 625,259.5 625,252 624,252 624,259.5 624,266.6 
		624.9,276.3 624.9,282.6 618.3,281.6 611.6,281.6 	"/>
	<polygon points="671.5,246.6 666.2,242.8 658,240.8 648.4,241.4 635.5,245.5 635.8,246.5 648.6,242.4 657.9,241.8 665.8,243.8 
		670.9,247.4 	"/>
	<polygon points="669.6,258.2 669.9,257.8 657,243.9 648.3,243.9 640.5,259.9 648.4,272.6 662,273.7 670.2,258.1 669.9,257.8 
		669.6,258.2 669.1,258 661.5,272.6 648.9,271.7 641.7,259.8 649,244.9 656.5,244.9 669.2,258.5 669.6,258.2 669.1,258 	"/>
	<polygon points="638.8,281.6 632.3,281.6 625.3,282.7 625.4,283.6 632.4,282.6 638.8,282.6 	"/>
	<polygon points="603.9,310.7 604.1,311.2 612.9,306.8 621.1,305.4 626.4,306.6 631.8,305.4 639.9,306.8 648.1,310.9 640.4,318.5 
		631.4,322 626.4,322.7 621.3,322 612.4,318.5 604.2,310.4 603.9,310.7 604.1,311.2 603.9,310.7 603.5,311.1 611.8,319.3 621,323 
		626.4,323.7 631.7,323 641,319.3 649.8,310.6 640.2,305.9 631.8,304.4 626.4,305.6 621.1,304.4 612.6,305.9 603,310.6 603.5,311.1 
			"/>
	<polygon points="603.8,311.2 608.5,311.6 621.4,310.6 626.4,311.3 631.6,310.6 644.3,311.6 649,311.2 648.9,310.2 644.3,310.6 
		631.5,309.6 626.4,310.2 621.4,309.6 608.5,310.6 603.9,310.2 	"/>
	<polygon points="603.8,311.2 608.4,311.6 621.3,314.3 626.4,315.4 631.6,314.3 644.4,311.6 649,311.2 648.9,310.2 644.2,310.6 
		631.4,313.4 626.4,314.4 621.5,313.4 608.6,310.6 603.9,310.2 	"/>
	<circle cx="554.9" cy="360.2" r="8.2"/>
	<circle cx="448.4" cy="359.3" r="8.2"/>
	<circle cx="355" cy="355.7" r="8.2"/>
	<circle cx="569.2" cy="553" r="8.2"/>
	<circle cx="565.6" cy="735.2" r="8.2"/>
	<circle cx="555.6" cy="903.2" r="8.2"/>
	<circle cx="808.2" cy="360.9" r="8.2"/>
	<circle cx="908.6" cy="365.2" r="8.2"/>
	<circle cx="685.6" cy="554.2" r="8.2"/>
	<circle cx="695.6" cy="735.2" r="8.2"/>
	<circle cx="695.6" cy="903.2" r="8.2"/>
	<path d="M580.1,258.2c0.6,0,1,0.5,1,1c0,0.6-0.5,1-1,1s-1-0.5-1-1C579.1,258.6,579.6,258.2,580.1,258.2z"/>
	<ellipse cx="584.3" cy="242.8" rx="1" ry="1"/>
	<ellipse cx="614.3" cy="246.7" rx="1" ry="1"/>
	<ellipse cx="624.5" cy="259.5" rx="1" ry="1"/>
	<ellipse cx="601.7" cy="241.5" rx="1" ry="1"/>
	<path d="M591.8,243.4c0.6,0,1,0.5,1,1c0,0.6-0.5,1-1,1c-0.6,0-1-0.5-1-1C590.8,243.8,591.3,243.4,591.8,243.4z"/>
	<ellipse cx="579.2" cy="247.6" rx="1" ry="1"/>
	<path d="M592.3,240.4c0.6,0,1,0.5,1,1c0,0.6-0.5,1-1,1c-0.6,0-1-0.5-1-1S591.7,240.4,592.3,240.4z"/>
	<path d="M585.8,271.1c0.6,0,1,0.5,1,1c0,0.6-0.5,1-1,1c-0.6,0-1-0.5-1-1S585.3,271.1,585.8,271.1z"/>
	<path d="M599.9,243.4c0.6,0,1,0.5,1,1c0,0.6-0.5,1-1,1c-0.6,0-1-0.5-1-1C598.9,243.8,599.4,243.4,599.9,243.4z"/>
	<path d="M608.6,257.8c0.6,0,1,0.5,1,1s-0.5,1-1,1s-1-0.5-1-1S608.1,257.8,608.6,257.8z"/>
	<ellipse cx="624.5" cy="252" rx="1" ry="1"/>
	<path d="M624.5,274.8c0.6,0,1.9,0.9,1.9,1.5s-0.5,1-1,1s-1-0.5-1-1C624.3,275.7,623.9,274.8,624.5,274.8z"/>
	<ellipse cx="611.6" cy="282.1" rx="1" ry="1"/>
	<ellipse cx="603.9" cy="310.7" rx="1" ry="1"/>
	<ellipse cx="618.3" cy="282.1" rx="1" ry="1"/>
	<ellipse cx="612.8" cy="306.3" rx="1" ry="1"/>
	<ellipse cx="624.5" cy="266.6" rx="1" ry="1"/>
	<ellipse cx="625.4" cy="283.2" rx="1" ry="1"/>
	<ellipse cx="626.4" cy="306.1" rx="1" ry="1"/>
	<path d="M621.1,303.9c0.6,0,1,0.5,1,1s-0.5,1-1,1s-1-0.5-1-1S620.6,303.9,621.1,303.9z"/>
	<path d="M608.5,310.1c0.5,0,1,0.5,1,1s-0.5,1-1,1s-1-0.5-1-1S608,310.1,608.5,310.1z"/>
	<path d="M626.4,322.1c0.6,0,1,0.5,1,1c0,0.6-0.5,1-1,1s-1-0.5-1-1S625.8,322.1,626.4,322.1z"/>
	<ellipse cx="626.4" cy="310.7" rx="1" ry="1"/>
	<path d="M626.4,313.7c0.6,0,1,0.5,1,1c0,0.6-0.5,1-1,1s-1-0.5-1-1S625.8,313.7,626.4,313.7z"/>
	<path d="M621.4,309.1c0.6,0,1,0.5,1,1c0,0.6-0.5,1-1,1c-0.6,0-1-0.5-1-1C620.4,309.5,620.8,309.1,621.4,309.1z"/>
	<path d="M621.4,312.8c0.6,0,1,0.5,1,1c0,0.6-0.5,1-1,1c-0.6,0-1-0.5-1-1S620.8,312.8,621.4,312.8z"/>
	<path d="M621.1,321.5c0.6,0,1,0.5,1,1c0,0.6-0.5,1-1,1s-1-0.5-1-1S620.6,321.5,621.1,321.5z"/>
	<path d="M612.1,317.9c0.6,0,1,0.5,1,1c0,0.6-0.5,1-1,1s-1-0.5-1-1C611.1,318.3,611.5,317.9,612.1,317.9z"/>
	<path d="M597.9,272.1c0.6,0,1,0.5,1,1s-0.5,1-1,1c-0.6,0-1-0.5-1-1S597.4,272.1,597.9,272.1z"/>
	<path d="M626.4,342.6c0.6,0,1,0.5,1,1c0,0.6-0.5,1-1,1s-1-0.5-1-1C625.4,343,625.8,342.6,626.4,342.6z"/>
	<path d="M607.1,338.4c0.6,0,1,0.5,1,1c0,0.6-0.5,1-1,1s-1-0.5-1-1S606.5,338.4,607.1,338.4z"/>
	<ellipse cx="594.2" cy="330.8" rx="1" ry="1"/>
	<path d="M579.3,313.6c0.6,0,1,0.5,1,1c0,0.6-0.5,1-1,1s-1-0.5-1-1C578.3,314,578.7,313.6,579.3,313.6z"/>
	<path d="M570.6,287.6c0.6,0,1,0.5,1,1c0,0.6-0.5,1-1,1s-1-0.5-1-1C569.5,288.1,570,287.6,570.6,287.6z"/>
	<ellipse cx="564.6" cy="256.2" rx="1" ry="1"/>
	<ellipse cx="559.6" cy="228.9" rx="1" ry="1"/>
	<ellipse cx="560.6" cy="213.8" rx="1" ry="1"/>
	<ellipse cx="562.1" cy="201.6" rx="1" ry="1"/>
	<path d="M627.7,162.7c0.6,0,1,0.5,1,1s-0.5,1-1,1c-0.6,0-1-0.5-1-1S627.2,162.7,627.7,162.7z"/>
	<path d="M653.1,166c0.6,0,1,0.5,1,1c0,0.6-0.5,1-1,1s-1-0.5-1-1C652.1,166.4,652.5,166,653.1,166z"/>
	<path d="M669.3,178.3c0.6,0,1,0.5,1,1c0,0.6-0.5,1-1,1c-0.6,0-1-0.5-1-1C668.3,178.7,668.7,178.3,669.3,178.3z"/>
	<ellipse cx="669.8" cy="258.2" rx="1" ry="1"/>
	<ellipse cx="666.3" cy="243.3" rx="1" ry="1"/>
	<ellipse cx="635.9" cy="246" rx="1" ry="1"/>
	<ellipse cx="648.8" cy="241.9" rx="1" ry="1"/>
	<ellipse cx="657.1" cy="244.4" rx="1" ry="1"/>
	<path d="M671.4,246c0.6,0,1,0.5,1,1c0,0.6-0.5,1-1,1c-0.6,0-1-0.5-1-1S670.9,246,671.4,246z"/>
	<ellipse cx="658.2" cy="241.3" rx="1" ry="1"/>
	<ellipse cx="662.1" cy="273.2" rx="1" ry="1"/>
	<path d="M649,243.4c0.6,0,1,0.5,1,1c0,0.6-0.5,1-1,1s-1-0.5-1-1C648,243.8,648.5,243.4,649,243.4z"/>
	<path d="M641.3,258.8c0.6,0,1,0.5,1,1s-0.5,1-1,1c-0.6,0-1-0.5-1-1S640.8,258.8,641.3,258.8z"/>
	<ellipse cx="638.8" cy="282.1" rx="1" ry="1"/>
	<path d="M648.9,309.7c0.6,0,1,0.5,1,1c0,0.6-0.5,1-1,1c-0.6,0-1-0.5-1-1S648.3,309.7,648.9,309.7z"/>
	<path d="M632.6,281.1c0.6,0,1,0.5,1,1c0,0.6-0.5,1-1,1s-1-0.5-1-1C631.5,281.5,632,281.1,632.6,281.1z"/>
	<ellipse cx="640" cy="306.3" rx="1" ry="1"/>
	<path d="M631.8,303.9c0.6,0,1,0.5,1,1s-0.5,1-1,1c-0.6,0-1-0.5-1-1S631.2,303.9,631.8,303.9z"/>
	<path d="M644.3,310.1c0.5,0,1,0.5,1,1s-0.5,1-1,1s-1-0.5-1-1S643.8,310.1,644.3,310.1z"/>
	<ellipse cx="631.5" cy="310.1" rx="1" ry="1"/>
	<path d="M631.5,312.8c0.6,0,1,0.5,1,1c0,0.6-0.5,1-1,1s-1-0.5-1-1S631,312.8,631.5,312.8z"/>
	<path d="M631.8,321.5c0.6,0,1,0.5,1,1c0,0.6-0.5,1-1,1c-0.6,0-1-0.5-1-1S631.2,321.5,631.8,321.5z"/>
	<path d="M640.7,317.9c0.6,0,1,0.5,1,1c0,0.6-0.5,1-1,1c-0.6,0-1-0.5-1-1C639.7,318.3,640.1,317.9,640.7,317.9z"/>
	<path d="M649,271.1c0.6,0,1,0.5,1,1s-0.5,1-1,1s-1-0.5-1-1S648.5,271.1,649,271.1z"/>
	<path d="M645.4,338.9c0.6,0,1,0.5,1,1c0,0.6-0.5,1-1,1s-1-0.5-1-1S644.9,338.9,645.4,338.9z"/>
	<ellipse cx="658.3" cy="331.3" rx="1" ry="1"/>
	<path d="M673.2,313.9c0.6,0,1,0.5,1,1c0,0.6-0.5,1-1,1s-1-0.5-1-1S672.7,313.9,673.2,313.9z"/>
	<path d="M682,288c0.6,0,1,0.5,1,1c0,0.6-0.5,1-1,1c-0.6,0-1-0.5-1-1S681.4,288,682,288z"/>
	<path d="M688.1,257.6c0.6,0,1,0.5,1,1c0,0.6-0.5,1-1,1s-1-0.5-1-1C687.1,258,687.5,257.6,688.1,257.6z"/>
	<path d="M692.1,228.1c0.6,0,1,0.5,1,1c0,0.6-0.5,1-1,1s-1-0.5-1-1S691.5,228.1,692.1,228.1z"/>
	<path d="M691.1,213c0.6,0,1,0.5,1,1s-0.5,1-1,1c-0.6,0-1-0.5-1-1S690.5,213,691.1,213z"/>
	<path d="M687.9,201.1c0.6,0,1,0.5,1,1c0,0.6-0.5,1-1,1s-1-0.5-1-1C686.8,201.5,687.3,201.1,687.9,201.1z"/>
	<path d="M602.1,166c0.6,0,1,0.5,1,1c0,0.6-0.5,1-1,1s-1-0.5-1-1C601.1,166.4,601.6,166,602.1,166z"/>
	<ellipse cx="578.2" cy="179.3" rx="1" ry="1"/>
	<circle cx="703.8" cy="361.2" r="8.2"/>
</g>
</svg>
